ISO-10303-21;
HEADER;
/* Generated by software containing ST-Developer
 * from STEP Tools, Inc. (www.steptools.com) 
 */

FILE_DESCRIPTION(
/* description */ (''),
/* implementation_level */ '2;1');

FILE_NAME(
/* name */ 'GanevaCADfiles.step',
/* time_stamp */ '2026-07-30T12:30:02-04:00',
/* author */ (''),
/* organization */ (''),
/* preprocessor_version */ 'ST-DEVELOPER v20.1',
/* originating_system */ 'Autodesk Translation Framework v15.8.0.0',
/* authorisation */ '');

FILE_SCHEMA (('AUTOMOTIVE_DESIGN { 1 0 10303 214 3 1 1 }'));
ENDSEC;

DATA;
#10=MECHANICAL_DESIGN_GEOMETRIC_PRESENTATION_REPRESENTATION('',(#27,#28),
#1193);
#11=ITEM_DEFINED_TRANSFORMATION($,$,#682,#745);
#12=ITEM_DEFINED_TRANSFORMATION($,$,#744,#746);
#13=ITEM_DEFINED_TRANSFORMATION($,$,#681,#767);
#14=(
REPRESENTATION_RELATIONSHIP($,$,#1211,#1210)
REPRESENTATION_RELATIONSHIP_WITH_TRANSFORMATION(#11)
SHAPE_REPRESENTATION_RELATIONSHIP()
);
#15=(
REPRESENTATION_RELATIONSHIP($,$,#1212,#1210)
REPRESENTATION_RELATIONSHIP_WITH_TRANSFORMATION(#12)
SHAPE_REPRESENTATION_RELATIONSHIP()
);
#16=(
REPRESENTATION_RELATIONSHIP($,$,#1210,#1209)
REPRESENTATION_RELATIONSHIP_WITH_TRANSFORMATION(#13)
SHAPE_REPRESENTATION_RELATIONSHIP()
);
#17=CONTEXT_DEPENDENT_SHAPE_REPRESENTATION(#14,#1206);
#18=CONTEXT_DEPENDENT_SHAPE_REPRESENTATION(#15,#1207);
#19=CONTEXT_DEPENDENT_SHAPE_REPRESENTATION(#16,#1208);
#20=NEXT_ASSEMBLY_USAGE_OCCURRENCE('Star wheel:1','Star wheel:1',
'Star wheel:1',#1215,#1216,'Star wheel:1');
#21=NEXT_ASSEMBLY_USAGE_OCCURRENCE('drive wheel:1','drive wheel:1',
'drive wheel:1',#1215,#1217,'drive wheel:1');
#22=NEXT_ASSEMBLY_USAGE_OCCURRENCE('ganeva:1','ganeva:1','ganeva:1',#1214,
#1215,'ganeva:1');
#23=SHAPE_REPRESENTATION_RELATIONSHIP('SRR','None',#1211,#25);
#24=SHAPE_REPRESENTATION_RELATIONSHIP('SRR','None',#1209,#26);
#25=ADVANCED_BREP_SHAPE_REPRESENTATION('',(#29),#1191);
#26=ADVANCED_BREP_SHAPE_REPRESENTATION('',(#30),#1189);
#27=STYLED_ITEM('',(#1233),#29);
#28=STYLED_ITEM('',(#1233),#30);
#29=MANIFOLD_SOLID_BREP('Body1',#655);
#30=MANIFOLD_SOLID_BREP('Body1',#656);
#31=FACE_BOUND('',#89,.T.);
#32=FACE_BOUND('',#93,.T.);
#33=FACE_BOUND('',#118,.T.);
#34=FACE_BOUND('',#121,.T.);
#35=FACE_BOUND('',#126,.T.);
#36=PLANE('',#689);
#37=PLANE('',#709);
#38=PLANE('',#729);
#39=PLANE('',#731);
#40=PLANE('',#732);
#41=PLANE('',#734);
#42=PLANE('',#735);
#43=PLANE('',#737);
#44=PLANE('',#741);
#45=PLANE('',#742);
#46=PLANE('',#751);
#47=PLANE('',#752);
#48=PLANE('',#758);
#49=PLANE('',#766);
#50=FACE_OUTER_BOUND('',#86,.T.);
#51=FACE_OUTER_BOUND('',#87,.T.);
#52=FACE_OUTER_BOUND('',#88,.T.);
#53=FACE_OUTER_BOUND('',#90,.T.);
#54=FACE_OUTER_BOUND('',#91,.T.);
#55=FACE_OUTER_BOUND('',#92,.T.);
#56=FACE_OUTER_BOUND('',#94,.T.);
#57=FACE_OUTER_BOUND('',#95,.T.);
#58=FACE_OUTER_BOUND('',#96,.T.);
#59=FACE_OUTER_BOUND('',#97,.T.);
#60=FACE_OUTER_BOUND('',#98,.T.);
#61=FACE_OUTER_BOUND('',#99,.T.);
#62=FACE_OUTER_BOUND('',#100,.T.);
#63=FACE_OUTER_BOUND('',#101,.T.);
#64=FACE_OUTER_BOUND('',#102,.T.);
#65=FACE_OUTER_BOUND('',#103,.T.);
#66=FACE_OUTER_BOUND('',#104,.T.);
#67=FACE_OUTER_BOUND('',#105,.T.);
#68=FACE_OUTER_BOUND('',#106,.T.);
#69=FACE_OUTER_BOUND('',#107,.T.);
#70=FACE_OUTER_BOUND('',#108,.T.);
#71=FACE_OUTER_BOUND('',#109,.T.);
#72=FACE_OUTER_BOUND('',#110,.T.);
#73=FACE_OUTER_BOUND('',#111,.T.);
#74=FACE_OUTER_BOUND('',#112,.T.);
#75=FACE_OUTER_BOUND('',#113,.T.);
#76=FACE_OUTER_BOUND('',#114,.T.);
#77=FACE_OUTER_BOUND('',#115,.T.);
#78=FACE_OUTER_BOUND('',#116,.T.);
#79=FACE_OUTER_BOUND('',#117,.T.);
#80=FACE_OUTER_BOUND('',#119,.T.);
#81=FACE_OUTER_BOUND('',#120,.T.);
#82=FACE_OUTER_BOUND('',#122,.T.);
#83=FACE_OUTER_BOUND('',#123,.T.);
#84=FACE_OUTER_BOUND('',#124,.T.);
#85=FACE_OUTER_BOUND('',#125,.T.);
#86=EDGE_LOOP('',(#415,#416,#417,#418));
#87=EDGE_LOOP('',(#419,#420,#421,#422));
#88=EDGE_LOOP('',(#423,#424,#425,#426,#427,#428,#429,#430,#431,#432,#433,
#434,#435,#436,#437,#438,#439,#440,#441,#442,#443,#444,#445,#446));
#89=EDGE_LOOP('',(#447));
#90=EDGE_LOOP('',(#448,#449,#450,#451));
#91=EDGE_LOOP('',(#452,#453,#454,#455));
#92=EDGE_LOOP('',(#456,#457,#458,#459,#460,#461,#462,#463,#464,#465,#466,
#467,#468,#469,#470,#471,#472,#473,#474,#475,#476,#477,#478,#479));
#93=EDGE_LOOP('',(#480));
#94=EDGE_LOOP('',(#481,#482,#483,#484));
#95=EDGE_LOOP('',(#485,#486,#487,#488));
#96=EDGE_LOOP('',(#489,#490,#491,#492));
#97=EDGE_LOOP('',(#493,#494,#495,#496));
#98=EDGE_LOOP('',(#497,#498,#499,#500));
#99=EDGE_LOOP('',(#501,#502,#503,#504));
#100=EDGE_LOOP('',(#505,#506,#507,#508));
#101=EDGE_LOOP('',(#509,#510,#511,#512));
#102=EDGE_LOOP('',(#513,#514,#515,#516));
#103=EDGE_LOOP('',(#517,#518,#519,#520));
#104=EDGE_LOOP('',(#521,#522,#523,#524));
#105=EDGE_LOOP('',(#525,#526,#527,#528));
#106=EDGE_LOOP('',(#529,#530,#531,#532));
#107=EDGE_LOOP('',(#533,#534,#535,#536));
#108=EDGE_LOOP('',(#537,#538,#539,#540));
#109=EDGE_LOOP('',(#541,#542,#543,#544));
#110=EDGE_LOOP('',(#545,#546,#547,#548));
#111=EDGE_LOOP('',(#549,#550,#551,#552));
#112=EDGE_LOOP('',(#553,#554,#555,#556));
#113=EDGE_LOOP('',(#557,#558,#559,#560));
#114=EDGE_LOOP('',(#561,#562,#563,#564));
#115=EDGE_LOOP('',(#565,#566,#567,#568,#569));
#116=EDGE_LOOP('',(#570));
#117=EDGE_LOOP('',(#571,#572,#573));
#118=EDGE_LOOP('',(#574,#575));
#119=EDGE_LOOP('',(#576,#577,#578,#579));
#120=EDGE_LOOP('',(#580,#581));
#121=EDGE_LOOP('',(#582));
#122=EDGE_LOOP('',(#583,#584,#585,#586));
#123=EDGE_LOOP('',(#587,#588,#589,#590));
#124=EDGE_LOOP('',(#591,#592,#593,#594));
#125=EDGE_LOOP('',(#595));
#126=EDGE_LOOP('',(#596));
#127=CIRCLE('',#684,40.6499999999999);
#128=CIRCLE('',#685,40.6499999999999);
#129=CIRCLE('',#687,50.);
#130=CIRCLE('',#688,50.);
#131=CIRCLE('',#690,50.);
#132=CIRCLE('',#691,3.175);
#133=CIRCLE('',#692,50.);
#134=CIRCLE('',#693,40.6499999999999);
#135=CIRCLE('',#694,50.);
#136=CIRCLE('',#695,3.175);
#137=CIRCLE('',#696,50.);
#138=CIRCLE('',#697,40.6499999999999);
#139=CIRCLE('',#698,50.);
#140=CIRCLE('',#699,3.175);
#141=CIRCLE('',#700,50.);
#142=CIRCLE('',#701,40.6499999999999);
#143=CIRCLE('',#702,50.);
#144=CIRCLE('',#703,3.175);
#145=CIRCLE('',#704,2.65);
#146=CIRCLE('',#706,40.6499999999999);
#147=CIRCLE('',#708,50.);
#148=CIRCLE('',#710,3.175);
#149=CIRCLE('',#711,50.);
#150=CIRCLE('',#712,40.6499999999999);
#151=CIRCLE('',#713,50.);
#152=CIRCLE('',#714,3.175);
#153=CIRCLE('',#715,50.);
#154=CIRCLE('',#716,40.6499999999999);
#155=CIRCLE('',#717,50.);
#156=CIRCLE('',#718,3.175);
#157=CIRCLE('',#719,50.);
#158=CIRCLE('',#720,3.175);
#159=CIRCLE('',#721,50.);
#160=CIRCLE('',#722,2.65);
#161=CIRCLE('',#748,3.);
#162=CIRCLE('',#749,3.);
#163=CIRCLE('',#750,3.);
#164=CIRCLE('',#753,53.);
#165=CIRCLE('',#754,39.925);
#166=CIRCLE('',#755,50.);
#167=CIRCLE('',#757,50.);
#168=CIRCLE('',#759,39.925);
#169=CIRCLE('',#760,2.65);
#170=CIRCLE('',#763,2.65);
#171=CIRCLE('',#765,53.);
#172=LINE('',#996,#218);
#173=LINE('',#1000,#219);
#174=LINE('',#1006,#220);
#175=LINE('',#1012,#221);
#176=LINE('',#1016,#222);
#177=LINE('',#1024,#223);
#178=LINE('',#1028,#224);
#179=LINE('',#1036,#225);
#180=LINE('',#1040,#226);
#181=LINE('',#1048,#227);
#182=LINE('',#1051,#228);
#183=LINE('',#1056,#229);
#184=LINE('',#1059,#230);
#185=LINE('',#1063,#231);
#186=LINE('',#1066,#232);
#187=LINE('',#1070,#233);
#188=LINE('',#1078,#234);
#189=LINE('',#1082,#235);
#190=LINE('',#1090,#236);
#191=LINE('',#1093,#237);
#192=LINE('',#1097,#238);
#193=LINE('',#1101,#239);
#194=LINE('',#1106,#240);
#195=LINE('',#1107,#241);
#196=LINE('',#1109,#242);
#197=LINE('',#1111,#243);
#198=LINE('',#1112,#244);
#199=LINE('',#1114,#245);
#200=LINE('',#1116,#246);
#201=LINE('',#1118,#247);
#202=LINE('',#1120,#248);
#203=LINE('',#1122,#249);
#204=LINE('',#1125,#250);
#205=LINE('',#1127,#251);
#206=LINE('',#1129,#252);
#207=LINE('',#1131,#253);
#208=LINE('',#1133,#254);
#209=LINE('',#1136,#255);
#210=LINE('',#1139,#256);
#211=LINE('',#1140,#257);
#212=LINE('',#1144,#258);
#213=LINE('',#1152,#259);
#214=LINE('',#1167,#260);
#215=LINE('',#1168,#261);
#216=LINE('',#1176,#262);
#217=LINE('',#1180,#263);
#218=VECTOR('',#776,10.);
#219=VECTOR('',#779,10.);
#220=VECTOR('',#786,10.);
#221=VECTOR('',#793,10.);
#222=VECTOR('',#796,10.);
#223=VECTOR('',#803,10.);
#224=VECTOR('',#806,10.);
#225=VECTOR('',#813,10.);
#226=VECTOR('',#816,10.);
#227=VECTOR('',#823,10.);
#228=VECTOR('',#826,10.);
#229=VECTOR('',#831,10.);
#230=VECTOR('',#834,10.);
#231=VECTOR('',#839,10.);
#232=VECTOR('',#842,10.);
#233=VECTOR('',#845,10.);
#234=VECTOR('',#852,10.);
#235=VECTOR('',#855,10.);
#236=VECTOR('',#862,10.);
#237=VECTOR('',#865,10.);
#238=VECTOR('',#868,10.);
#239=VECTOR('',#871,10.);
#240=VECTOR('',#878,10.);
#241=VECTOR('',#879,10.);
#242=VECTOR('',#882,10.);
#243=VECTOR('',#885,10.);
#244=VECTOR('',#886,10.);
#245=VECTOR('',#889,10.);
#246=VECTOR('',#892,10.);
#247=VECTOR('',#895,10.);
#248=VECTOR('',#898,10.);
#249=VECTOR('',#901,10.);
#250=VECTOR('',#906,10.);
#251=VECTOR('',#909,10.);
#252=VECTOR('',#912,10.);
#253=VECTOR('',#915,10.);
#254=VECTOR('',#918,10.);
#255=VECTOR('',#923,10.);
#256=VECTOR('',#928,10.);
#257=VECTOR('',#929,10.);
#258=VECTOR('',#936,2.65);
#259=VECTOR('',#947,3.);
#260=VECTOR('',#966,10.);
#261=VECTOR('',#967,10.);
#262=VECTOR('',#978,2.65);
#263=VECTOR('',#983,53.);
#264=VERTEX_POINT('',#994);
#265=VERTEX_POINT('',#995);
#266=VERTEX_POINT('',#997);
#267=VERTEX_POINT('',#999);
#268=VERTEX_POINT('',#1003);
#269=VERTEX_POINT('',#1005);
#270=VERTEX_POINT('',#1009);
#271=VERTEX_POINT('',#1011);
#272=VERTEX_POINT('',#1013);
#273=VERTEX_POINT('',#1015);
#274=VERTEX_POINT('',#1017);
#275=VERTEX_POINT('',#1019);
#276=VERTEX_POINT('',#1021);
#277=VERTEX_POINT('',#1023);
#278=VERTEX_POINT('',#1025);
#279=VERTEX_POINT('',#1027);
#280=VERTEX_POINT('',#1029);
#281=VERTEX_POINT('',#1031);
#282=VERTEX_POINT('',#1033);
#283=VERTEX_POINT('',#1035);
#284=VERTEX_POINT('',#1037);
#285=VERTEX_POINT('',#1039);
#286=VERTEX_POINT('',#1041);
#287=VERTEX_POINT('',#1043);
#288=VERTEX_POINT('',#1045);
#289=VERTEX_POINT('',#1047);
#290=VERTEX_POINT('',#1049);
#291=VERTEX_POINT('',#1052);
#292=VERTEX_POINT('',#1055);
#293=VERTEX_POINT('',#1057);
#294=VERTEX_POINT('',#1061);
#295=VERTEX_POINT('',#1065);
#296=VERTEX_POINT('',#1067);
#297=VERTEX_POINT('',#1069);
#298=VERTEX_POINT('',#1071);
#299=VERTEX_POINT('',#1073);
#300=VERTEX_POINT('',#1075);
#301=VERTEX_POINT('',#1077);
#302=VERTEX_POINT('',#1079);
#303=VERTEX_POINT('',#1081);
#304=VERTEX_POINT('',#1083);
#305=VERTEX_POINT('',#1085);
#306=VERTEX_POINT('',#1087);
#307=VERTEX_POINT('',#1089);
#308=VERTEX_POINT('',#1091);
#309=VERTEX_POINT('',#1094);
#310=VERTEX_POINT('',#1096);
#311=VERTEX_POINT('',#1098);
#312=VERTEX_POINT('',#1100);
#313=VERTEX_POINT('',#1103);
#314=VERTEX_POINT('',#1149);
#315=VERTEX_POINT('',#1151);
#316=VERTEX_POINT('',#1153);
#317=VERTEX_POINT('',#1159);
#318=VERTEX_POINT('',#1160);
#319=VERTEX_POINT('',#1164);
#320=VERTEX_POINT('',#1165);
#321=VERTEX_POINT('',#1171);
#322=VERTEX_POINT('',#1175);
#323=VERTEX_POINT('',#1179);
#324=EDGE_CURVE('',#264,#265,#172,.T.);
#325=EDGE_CURVE('',#265,#266,#127,.T.);
#326=EDGE_CURVE('',#266,#267,#173,.T.);
#327=EDGE_CURVE('',#267,#264,#128,.T.);
#328=EDGE_CURVE('',#268,#264,#129,.T.);
#329=EDGE_CURVE('',#268,#269,#174,.T.);
#330=EDGE_CURVE('',#269,#265,#130,.T.);
#331=EDGE_CURVE('',#267,#270,#131,.T.);
#332=EDGE_CURVE('',#270,#271,#175,.T.);
#333=EDGE_CURVE('',#271,#272,#132,.T.);
#334=EDGE_CURVE('',#272,#273,#176,.T.);
#335=EDGE_CURVE('',#273,#274,#133,.T.);
#336=EDGE_CURVE('',#275,#274,#134,.T.);
#337=EDGE_CURVE('',#275,#276,#135,.T.);
#338=EDGE_CURVE('',#276,#277,#177,.T.);
#339=EDGE_CURVE('',#277,#278,#136,.T.);
#340=EDGE_CURVE('',#278,#279,#178,.T.);
#341=EDGE_CURVE('',#279,#280,#137,.T.);
#342=EDGE_CURVE('',#281,#280,#138,.T.);
#343=EDGE_CURVE('',#281,#282,#139,.T.);
#344=EDGE_CURVE('',#282,#283,#179,.T.);
#345=EDGE_CURVE('',#283,#284,#140,.T.);
#346=EDGE_CURVE('',#284,#285,#180,.T.);
#347=EDGE_CURVE('',#285,#286,#141,.T.);
#348=EDGE_CURVE('',#286,#287,#142,.T.);
#349=EDGE_CURVE('',#287,#288,#143,.T.);
#350=EDGE_CURVE('',#288,#289,#181,.T.);
#351=EDGE_CURVE('',#289,#290,#144,.T.);
#352=EDGE_CURVE('',#290,#268,#182,.T.);
#353=EDGE_CURVE('',#291,#291,#145,.T.);
#354=EDGE_CURVE('',#274,#292,#183,.T.);
#355=EDGE_CURVE('',#292,#293,#146,.T.);
#356=EDGE_CURVE('',#293,#275,#184,.T.);
#357=EDGE_CURVE('',#293,#294,#147,.T.);
#358=EDGE_CURVE('',#294,#276,#185,.T.);
#359=EDGE_CURVE('',#269,#295,#186,.T.);
#360=EDGE_CURVE('',#295,#296,#148,.T.);
#361=EDGE_CURVE('',#296,#297,#187,.T.);
#362=EDGE_CURVE('',#298,#297,#149,.T.);
#363=EDGE_CURVE('',#298,#299,#150,.T.);
#364=EDGE_CURVE('',#300,#299,#151,.T.);
#365=EDGE_CURVE('',#300,#301,#188,.T.);
#366=EDGE_CURVE('',#301,#302,#152,.T.);
#367=EDGE_CURVE('',#302,#303,#189,.T.);
#368=EDGE_CURVE('',#304,#303,#153,.T.);
#369=EDGE_CURVE('',#305,#304,#154,.T.);
#370=EDGE_CURVE('',#306,#305,#155,.T.);
#371=EDGE_CURVE('',#306,#307,#190,.T.);
#372=EDGE_CURVE('',#307,#308,#156,.T.);
#373=EDGE_CURVE('',#308,#294,#191,.T.);
#374=EDGE_CURVE('',#309,#292,#157,.T.);
#375=EDGE_CURVE('',#309,#310,#192,.T.);
#376=EDGE_CURVE('',#310,#311,#158,.T.);
#377=EDGE_CURVE('',#311,#312,#193,.T.);
#378=EDGE_CURVE('',#266,#312,#159,.T.);
#379=EDGE_CURVE('',#313,#313,#160,.T.);
#380=EDGE_CURVE('',#280,#305,#194,.T.);
#381=EDGE_CURVE('',#304,#281,#195,.T.);
#382=EDGE_CURVE('',#279,#306,#196,.T.);
#383=EDGE_CURVE('',#299,#286,#197,.T.);
#384=EDGE_CURVE('',#285,#300,#198,.T.);
#385=EDGE_CURVE('',#287,#298,#199,.T.);
#386=EDGE_CURVE('',#297,#288,#200,.T.);
#387=EDGE_CURVE('',#273,#309,#201,.T.);
#388=EDGE_CURVE('',#278,#307,#202,.T.);
#389=EDGE_CURVE('',#277,#308,#203,.T.);
#390=EDGE_CURVE('',#284,#301,#204,.T.);
#391=EDGE_CURVE('',#283,#302,#205,.T.);
#392=EDGE_CURVE('',#303,#282,#206,.T.);
#393=EDGE_CURVE('',#290,#295,#207,.T.);
#394=EDGE_CURVE('',#289,#296,#208,.T.);
#395=EDGE_CURVE('',#312,#270,#209,.T.);
#396=EDGE_CURVE('',#272,#310,#210,.T.);
#397=EDGE_CURVE('',#271,#311,#211,.T.);
#398=EDGE_CURVE('',#291,#313,#212,.T.);
#399=EDGE_CURVE('',#314,#314,#161,.T.);
#400=EDGE_CURVE('',#314,#315,#213,.T.);
#401=EDGE_CURVE('',#316,#315,#162,.T.);
#402=EDGE_CURVE('',#315,#316,#163,.T.);
#403=EDGE_CURVE('',#316,#316,#164,.T.);
#404=EDGE_CURVE('',#317,#318,#165,.T.);
#405=EDGE_CURVE('',#317,#318,#166,.T.);
#406=EDGE_CURVE('',#319,#320,#167,.T.);
#407=EDGE_CURVE('',#317,#319,#214,.T.);
#408=EDGE_CURVE('',#320,#318,#215,.T.);
#409=EDGE_CURVE('',#320,#319,#168,.T.);
#410=EDGE_CURVE('',#321,#321,#169,.T.);
#411=EDGE_CURVE('',#321,#322,#216,.T.);
#412=EDGE_CURVE('',#322,#322,#170,.T.);
#413=EDGE_CURVE('',#316,#323,#217,.T.);
#414=EDGE_CURVE('',#323,#323,#171,.T.);
#415=ORIENTED_EDGE('',*,*,#324,.T.);
#416=ORIENTED_EDGE('',*,*,#325,.T.);
#417=ORIENTED_EDGE('',*,*,#326,.T.);
#418=ORIENTED_EDGE('',*,*,#327,.T.);
#419=ORIENTED_EDGE('',*,*,#324,.F.);
#420=ORIENTED_EDGE('',*,*,#328,.F.);
#421=ORIENTED_EDGE('',*,*,#329,.T.);
#422=ORIENTED_EDGE('',*,*,#330,.T.);
#423=ORIENTED_EDGE('',*,*,#327,.F.);
#424=ORIENTED_EDGE('',*,*,#331,.T.);
#425=ORIENTED_EDGE('',*,*,#332,.T.);
#426=ORIENTED_EDGE('',*,*,#333,.T.);
#427=ORIENTED_EDGE('',*,*,#334,.T.);
#428=ORIENTED_EDGE('',*,*,#335,.T.);
#429=ORIENTED_EDGE('',*,*,#336,.F.);
#430=ORIENTED_EDGE('',*,*,#337,.T.);
#431=ORIENTED_EDGE('',*,*,#338,.T.);
#432=ORIENTED_EDGE('',*,*,#339,.T.);
#433=ORIENTED_EDGE('',*,*,#340,.T.);
#434=ORIENTED_EDGE('',*,*,#341,.T.);
#435=ORIENTED_EDGE('',*,*,#342,.F.);
#436=ORIENTED_EDGE('',*,*,#343,.T.);
#437=ORIENTED_EDGE('',*,*,#344,.T.);
#438=ORIENTED_EDGE('',*,*,#345,.T.);
#439=ORIENTED_EDGE('',*,*,#346,.T.);
#440=ORIENTED_EDGE('',*,*,#347,.T.);
#441=ORIENTED_EDGE('',*,*,#348,.T.);
#442=ORIENTED_EDGE('',*,*,#349,.T.);
#443=ORIENTED_EDGE('',*,*,#350,.T.);
#444=ORIENTED_EDGE('',*,*,#351,.T.);
#445=ORIENTED_EDGE('',*,*,#352,.T.);
#446=ORIENTED_EDGE('',*,*,#328,.T.);
#447=ORIENTED_EDGE('',*,*,#353,.T.);
#448=ORIENTED_EDGE('',*,*,#354,.T.);
#449=ORIENTED_EDGE('',*,*,#355,.T.);
#450=ORIENTED_EDGE('',*,*,#356,.T.);
#451=ORIENTED_EDGE('',*,*,#336,.T.);
#452=ORIENTED_EDGE('',*,*,#356,.F.);
#453=ORIENTED_EDGE('',*,*,#357,.T.);
#454=ORIENTED_EDGE('',*,*,#358,.T.);
#455=ORIENTED_EDGE('',*,*,#337,.F.);
#456=ORIENTED_EDGE('',*,*,#325,.F.);
#457=ORIENTED_EDGE('',*,*,#330,.F.);
#458=ORIENTED_EDGE('',*,*,#359,.T.);
#459=ORIENTED_EDGE('',*,*,#360,.T.);
#460=ORIENTED_EDGE('',*,*,#361,.T.);
#461=ORIENTED_EDGE('',*,*,#362,.F.);
#462=ORIENTED_EDGE('',*,*,#363,.T.);
#463=ORIENTED_EDGE('',*,*,#364,.F.);
#464=ORIENTED_EDGE('',*,*,#365,.T.);
#465=ORIENTED_EDGE('',*,*,#366,.T.);
#466=ORIENTED_EDGE('',*,*,#367,.T.);
#467=ORIENTED_EDGE('',*,*,#368,.F.);
#468=ORIENTED_EDGE('',*,*,#369,.F.);
#469=ORIENTED_EDGE('',*,*,#370,.F.);
#470=ORIENTED_EDGE('',*,*,#371,.T.);
#471=ORIENTED_EDGE('',*,*,#372,.T.);
#472=ORIENTED_EDGE('',*,*,#373,.T.);
#473=ORIENTED_EDGE('',*,*,#357,.F.);
#474=ORIENTED_EDGE('',*,*,#355,.F.);
#475=ORIENTED_EDGE('',*,*,#374,.F.);
#476=ORIENTED_EDGE('',*,*,#375,.T.);
#477=ORIENTED_EDGE('',*,*,#376,.T.);
#478=ORIENTED_EDGE('',*,*,#377,.T.);
#479=ORIENTED_EDGE('',*,*,#378,.F.);
#480=ORIENTED_EDGE('',*,*,#379,.T.);
#481=ORIENTED_EDGE('',*,*,#380,.T.);
#482=ORIENTED_EDGE('',*,*,#369,.T.);
#483=ORIENTED_EDGE('',*,*,#381,.T.);
#484=ORIENTED_EDGE('',*,*,#342,.T.);
#485=ORIENTED_EDGE('',*,*,#380,.F.);
#486=ORIENTED_EDGE('',*,*,#341,.F.);
#487=ORIENTED_EDGE('',*,*,#382,.T.);
#488=ORIENTED_EDGE('',*,*,#370,.T.);
#489=ORIENTED_EDGE('',*,*,#383,.T.);
#490=ORIENTED_EDGE('',*,*,#347,.F.);
#491=ORIENTED_EDGE('',*,*,#384,.T.);
#492=ORIENTED_EDGE('',*,*,#364,.T.);
#493=ORIENTED_EDGE('',*,*,#383,.F.);
#494=ORIENTED_EDGE('',*,*,#363,.F.);
#495=ORIENTED_EDGE('',*,*,#385,.F.);
#496=ORIENTED_EDGE('',*,*,#348,.F.);
#497=ORIENTED_EDGE('',*,*,#385,.T.);
#498=ORIENTED_EDGE('',*,*,#362,.T.);
#499=ORIENTED_EDGE('',*,*,#386,.T.);
#500=ORIENTED_EDGE('',*,*,#349,.F.);
#501=ORIENTED_EDGE('',*,*,#354,.F.);
#502=ORIENTED_EDGE('',*,*,#335,.F.);
#503=ORIENTED_EDGE('',*,*,#387,.T.);
#504=ORIENTED_EDGE('',*,*,#374,.T.);
#505=ORIENTED_EDGE('',*,*,#382,.F.);
#506=ORIENTED_EDGE('',*,*,#340,.F.);
#507=ORIENTED_EDGE('',*,*,#388,.T.);
#508=ORIENTED_EDGE('',*,*,#371,.F.);
#509=ORIENTED_EDGE('',*,*,#372,.F.);
#510=ORIENTED_EDGE('',*,*,#388,.F.);
#511=ORIENTED_EDGE('',*,*,#339,.F.);
#512=ORIENTED_EDGE('',*,*,#389,.T.);
#513=ORIENTED_EDGE('',*,*,#358,.F.);
#514=ORIENTED_EDGE('',*,*,#373,.F.);
#515=ORIENTED_EDGE('',*,*,#389,.F.);
#516=ORIENTED_EDGE('',*,*,#338,.F.);
#517=ORIENTED_EDGE('',*,*,#384,.F.);
#518=ORIENTED_EDGE('',*,*,#346,.F.);
#519=ORIENTED_EDGE('',*,*,#390,.T.);
#520=ORIENTED_EDGE('',*,*,#365,.F.);
#521=ORIENTED_EDGE('',*,*,#366,.F.);
#522=ORIENTED_EDGE('',*,*,#390,.F.);
#523=ORIENTED_EDGE('',*,*,#345,.F.);
#524=ORIENTED_EDGE('',*,*,#391,.T.);
#525=ORIENTED_EDGE('',*,*,#392,.F.);
#526=ORIENTED_EDGE('',*,*,#367,.F.);
#527=ORIENTED_EDGE('',*,*,#391,.F.);
#528=ORIENTED_EDGE('',*,*,#344,.F.);
#529=ORIENTED_EDGE('',*,*,#329,.F.);
#530=ORIENTED_EDGE('',*,*,#352,.F.);
#531=ORIENTED_EDGE('',*,*,#393,.T.);
#532=ORIENTED_EDGE('',*,*,#359,.F.);
#533=ORIENTED_EDGE('',*,*,#360,.F.);
#534=ORIENTED_EDGE('',*,*,#393,.F.);
#535=ORIENTED_EDGE('',*,*,#351,.F.);
#536=ORIENTED_EDGE('',*,*,#394,.T.);
#537=ORIENTED_EDGE('',*,*,#386,.F.);
#538=ORIENTED_EDGE('',*,*,#361,.F.);
#539=ORIENTED_EDGE('',*,*,#394,.F.);
#540=ORIENTED_EDGE('',*,*,#350,.F.);
#541=ORIENTED_EDGE('',*,*,#326,.F.);
#542=ORIENTED_EDGE('',*,*,#378,.T.);
#543=ORIENTED_EDGE('',*,*,#395,.T.);
#544=ORIENTED_EDGE('',*,*,#331,.F.);
#545=ORIENTED_EDGE('',*,*,#381,.F.);
#546=ORIENTED_EDGE('',*,*,#368,.T.);
#547=ORIENTED_EDGE('',*,*,#392,.T.);
#548=ORIENTED_EDGE('',*,*,#343,.F.);
#549=ORIENTED_EDGE('',*,*,#376,.F.);
#550=ORIENTED_EDGE('',*,*,#396,.F.);
#551=ORIENTED_EDGE('',*,*,#333,.F.);
#552=ORIENTED_EDGE('',*,*,#397,.T.);
#553=ORIENTED_EDGE('',*,*,#377,.F.);
#554=ORIENTED_EDGE('',*,*,#397,.F.);
#555=ORIENTED_EDGE('',*,*,#332,.F.);
#556=ORIENTED_EDGE('',*,*,#395,.F.);
#557=ORIENTED_EDGE('',*,*,#375,.F.);
#558=ORIENTED_EDGE('',*,*,#387,.F.);
#559=ORIENTED_EDGE('',*,*,#334,.F.);
#560=ORIENTED_EDGE('',*,*,#396,.T.);
#561=ORIENTED_EDGE('',*,*,#353,.F.);
#562=ORIENTED_EDGE('',*,*,#398,.T.);
#563=ORIENTED_EDGE('',*,*,#379,.F.);
#564=ORIENTED_EDGE('',*,*,#398,.F.);
#565=ORIENTED_EDGE('',*,*,#399,.F.);
#566=ORIENTED_EDGE('',*,*,#400,.T.);
#567=ORIENTED_EDGE('',*,*,#401,.F.);
#568=ORIENTED_EDGE('',*,*,#402,.F.);
#569=ORIENTED_EDGE('',*,*,#400,.F.);
#570=ORIENTED_EDGE('',*,*,#399,.T.);
#571=ORIENTED_EDGE('',*,*,#403,.T.);
#572=ORIENTED_EDGE('',*,*,#401,.T.);
#573=ORIENTED_EDGE('',*,*,#402,.T.);
#574=ORIENTED_EDGE('',*,*,#404,.T.);
#575=ORIENTED_EDGE('',*,*,#405,.F.);
#576=ORIENTED_EDGE('',*,*,#406,.F.);
#577=ORIENTED_EDGE('',*,*,#407,.F.);
#578=ORIENTED_EDGE('',*,*,#405,.T.);
#579=ORIENTED_EDGE('',*,*,#408,.F.);
#580=ORIENTED_EDGE('',*,*,#406,.T.);
#581=ORIENTED_EDGE('',*,*,#409,.T.);
#582=ORIENTED_EDGE('',*,*,#410,.T.);
#583=ORIENTED_EDGE('',*,*,#407,.T.);
#584=ORIENTED_EDGE('',*,*,#409,.F.);
#585=ORIENTED_EDGE('',*,*,#408,.T.);
#586=ORIENTED_EDGE('',*,*,#404,.F.);
#587=ORIENTED_EDGE('',*,*,#410,.F.);
#588=ORIENTED_EDGE('',*,*,#411,.T.);
#589=ORIENTED_EDGE('',*,*,#412,.T.);
#590=ORIENTED_EDGE('',*,*,#411,.F.);
#591=ORIENTED_EDGE('',*,*,#403,.F.);
#592=ORIENTED_EDGE('',*,*,#413,.T.);
#593=ORIENTED_EDGE('',*,*,#414,.T.);
#594=ORIENTED_EDGE('',*,*,#413,.F.);
#595=ORIENTED_EDGE('',*,*,#414,.F.);
#596=ORIENTED_EDGE('',*,*,#412,.F.);
#597=CYLINDRICAL_SURFACE('',#683,40.6499999999999);
#598=CYLINDRICAL_SURFACE('',#686,50.);
#599=CYLINDRICAL_SURFACE('',#705,40.6499999999999);
#600=CYLINDRICAL_SURFACE('',#707,50.);
#601=CYLINDRICAL_SURFACE('',#723,40.6499999999999);
#602=CYLINDRICAL_SURFACE('',#724,50.);
#603=CYLINDRICAL_SURFACE('',#725,50.);
#604=CYLINDRICAL_SURFACE('',#726,40.6499999999999);
#605=CYLINDRICAL_SURFACE('',#727,50.);
#606=CYLINDRICAL_SURFACE('',#728,50.);
#607=CYLINDRICAL_SURFACE('',#730,3.175);
#608=CYLINDRICAL_SURFACE('',#733,3.175);
#609=CYLINDRICAL_SURFACE('',#736,3.175);
#610=CYLINDRICAL_SURFACE('',#738,50.);
#611=CYLINDRICAL_SURFACE('',#739,50.);
#612=CYLINDRICAL_SURFACE('',#740,3.175);
#613=CYLINDRICAL_SURFACE('',#743,2.65);
#614=CYLINDRICAL_SURFACE('',#747,3.);
#615=CYLINDRICAL_SURFACE('',#756,50.);
#616=CYLINDRICAL_SURFACE('',#761,39.925);
#617=CYLINDRICAL_SURFACE('',#762,2.65);
#618=CYLINDRICAL_SURFACE('',#764,53.);
#619=ADVANCED_FACE('',(#50),#597,.F.);
#620=ADVANCED_FACE('',(#51),#598,.T.);
#621=ADVANCED_FACE('',(#52,#31),#36,.T.);
#622=ADVANCED_FACE('',(#53),#599,.F.);
#623=ADVANCED_FACE('',(#54),#600,.T.);
#624=ADVANCED_FACE('',(#55,#32),#37,.F.);
#625=ADVANCED_FACE('',(#56),#601,.F.);
#626=ADVANCED_FACE('',(#57),#602,.T.);
#627=ADVANCED_FACE('',(#58),#603,.T.);
#628=ADVANCED_FACE('',(#59),#604,.F.);
#629=ADVANCED_FACE('',(#60),#605,.T.);
#630=ADVANCED_FACE('',(#61),#606,.T.);
#631=ADVANCED_FACE('',(#62),#38,.F.);
#632=ADVANCED_FACE('',(#63),#607,.F.);
#633=ADVANCED_FACE('',(#64),#39,.F.);
#634=ADVANCED_FACE('',(#65),#40,.F.);
#635=ADVANCED_FACE('',(#66),#608,.F.);
#636=ADVANCED_FACE('',(#67),#41,.F.);
#637=ADVANCED_FACE('',(#68),#42,.F.);
#638=ADVANCED_FACE('',(#69),#609,.F.);
#639=ADVANCED_FACE('',(#70),#43,.F.);
#640=ADVANCED_FACE('',(#71),#610,.T.);
#641=ADVANCED_FACE('',(#72),#611,.T.);
#642=ADVANCED_FACE('',(#73),#612,.F.);
#643=ADVANCED_FACE('',(#74),#44,.F.);
#644=ADVANCED_FACE('',(#75),#45,.F.);
#645=ADVANCED_FACE('',(#76),#613,.F.);
#646=ADVANCED_FACE('',(#77),#614,.T.);
#647=ADVANCED_FACE('',(#78),#46,.T.);
#648=ADVANCED_FACE('',(#79,#33),#47,.T.);
#649=ADVANCED_FACE('',(#80),#615,.F.);
#650=ADVANCED_FACE('',(#81,#34),#48,.T.);
#651=ADVANCED_FACE('',(#82),#616,.T.);
#652=ADVANCED_FACE('',(#83),#617,.F.);
#653=ADVANCED_FACE('',(#84),#618,.T.);
#654=ADVANCED_FACE('',(#85,#35),#49,.F.);
#655=CLOSED_SHELL('',(#619,#620,#621,#622,#623,#624,#625,#626,#627,#628,
#629,#630,#631,#632,#633,#634,#635,#636,#637,#638,#639,#640,#641,#642,#643,
#644,#645));
#656=CLOSED_SHELL('',(#646,#647,#648,#649,#650,#651,#652,#653,#654));
#657=DERIVED_UNIT_ELEMENT(#661,1.);
#658=DERIVED_UNIT_ELEMENT(#1195,-3.);
#659=DERIVED_UNIT_ELEMENT(#661,1.);
#660=DERIVED_UNIT_ELEMENT(#1195,-3.);
#661=(
MASS_UNIT()
NAMED_UNIT(*)
SI_UNIT(.KILO.,.GRAM.)
);
#662=DERIVED_UNIT((#657,#658));
#663=DERIVED_UNIT((#659,#660));
#664=MEASURE_REPRESENTATION_ITEM('density measure',
POSITIVE_RATIO_MEASURE(7850.),#662);
#665=MEASURE_REPRESENTATION_ITEM('density measure',
POSITIVE_RATIO_MEASURE(7850.),#663);
#666=PROPERTY_DEFINITION_REPRESENTATION(#676,#670);
#667=PROPERTY_DEFINITION_REPRESENTATION(#677,#671);
#668=PROPERTY_DEFINITION_REPRESENTATION(#678,#672);
#669=PROPERTY_DEFINITION_REPRESENTATION(#679,#673);
#670=REPRESENTATION('material name',(#674),#1191);
#671=REPRESENTATION('density',(#664),#1191);
#672=REPRESENTATION('material name',(#675),#1192);
#673=REPRESENTATION('density',(#665),#1192);
#674=DESCRIPTIVE_REPRESENTATION_ITEM('Steel','Steel');
#675=DESCRIPTIVE_REPRESENTATION_ITEM('Steel','Steel');
#676=PROPERTY_DEFINITION('material property','material name',#1216);
#677=PROPERTY_DEFINITION('material property','density of part',#1216);
#678=PROPERTY_DEFINITION('material property','material name',#1217);
#679=PROPERTY_DEFINITION('material property','density of part',#1217);
#680=AXIS2_PLACEMENT_3D('',#990,#768,#769);
#681=AXIS2_PLACEMENT_3D('',#991,#770,#771);
#682=AXIS2_PLACEMENT_3D('',#992,#772,#773);
#683=AXIS2_PLACEMENT_3D('',#993,#774,#775);
#684=AXIS2_PLACEMENT_3D('',#998,#777,#778);
#685=AXIS2_PLACEMENT_3D('',#1001,#780,#781);
#686=AXIS2_PLACEMENT_3D('',#1002,#782,#783);
#687=AXIS2_PLACEMENT_3D('',#1004,#784,#785);
#688=AXIS2_PLACEMENT_3D('',#1007,#787,#788);
#689=AXIS2_PLACEMENT_3D('',#1008,#789,#790);
#690=AXIS2_PLACEMENT_3D('',#1010,#791,#792);
#691=AXIS2_PLACEMENT_3D('',#1014,#794,#795);
#692=AXIS2_PLACEMENT_3D('',#1018,#797,#798);
#693=AXIS2_PLACEMENT_3D('',#1020,#799,#800);
#694=AXIS2_PLACEMENT_3D('',#1022,#801,#802);
#695=AXIS2_PLACEMENT_3D('',#1026,#804,#805);
#696=AXIS2_PLACEMENT_3D('',#1030,#807,#808);
#697=AXIS2_PLACEMENT_3D('',#1032,#809,#810);
#698=AXIS2_PLACEMENT_3D('',#1034,#811,#812);
#699=AXIS2_PLACEMENT_3D('',#1038,#814,#815);
#700=AXIS2_PLACEMENT_3D('',#1042,#817,#818);
#701=AXIS2_PLACEMENT_3D('',#1044,#819,#820);
#702=AXIS2_PLACEMENT_3D('',#1046,#821,#822);
#703=AXIS2_PLACEMENT_3D('',#1050,#824,#825);
#704=AXIS2_PLACEMENT_3D('',#1053,#827,#828);
#705=AXIS2_PLACEMENT_3D('',#1054,#829,#830);
#706=AXIS2_PLACEMENT_3D('',#1058,#832,#833);
#707=AXIS2_PLACEMENT_3D('',#1060,#835,#836);
#708=AXIS2_PLACEMENT_3D('',#1062,#837,#838);
#709=AXIS2_PLACEMENT_3D('',#1064,#840,#841);
#710=AXIS2_PLACEMENT_3D('',#1068,#843,#844);
#711=AXIS2_PLACEMENT_3D('',#1072,#846,#847);
#712=AXIS2_PLACEMENT_3D('',#1074,#848,#849);
#713=AXIS2_PLACEMENT_3D('',#1076,#850,#851);
#714=AXIS2_PLACEMENT_3D('',#1080,#853,#854);
#715=AXIS2_PLACEMENT_3D('',#1084,#856,#857);
#716=AXIS2_PLACEMENT_3D('',#1086,#858,#859);
#717=AXIS2_PLACEMENT_3D('',#1088,#860,#861);
#718=AXIS2_PLACEMENT_3D('',#1092,#863,#864);
#719=AXIS2_PLACEMENT_3D('',#1095,#866,#867);
#720=AXIS2_PLACEMENT_3D('',#1099,#869,#870);
#721=AXIS2_PLACEMENT_3D('',#1102,#872,#873);
#722=AXIS2_PLACEMENT_3D('',#1104,#874,#875);
#723=AXIS2_PLACEMENT_3D('',#1105,#876,#877);
#724=AXIS2_PLACEMENT_3D('',#1108,#880,#881);
#725=AXIS2_PLACEMENT_3D('',#1110,#883,#884);
#726=AXIS2_PLACEMENT_3D('',#1113,#887,#888);
#727=AXIS2_PLACEMENT_3D('',#1115,#890,#891);
#728=AXIS2_PLACEMENT_3D('',#1117,#893,#894);
#729=AXIS2_PLACEMENT_3D('',#1119,#896,#897);
#730=AXIS2_PLACEMENT_3D('',#1121,#899,#900);
#731=AXIS2_PLACEMENT_3D('',#1123,#902,#903);
#732=AXIS2_PLACEMENT_3D('',#1124,#904,#905);
#733=AXIS2_PLACEMENT_3D('',#1126,#907,#908);
#734=AXIS2_PLACEMENT_3D('',#1128,#910,#911);
#735=AXIS2_PLACEMENT_3D('',#1130,#913,#914);
#736=AXIS2_PLACEMENT_3D('',#1132,#916,#917);
#737=AXIS2_PLACEMENT_3D('',#1134,#919,#920);
#738=AXIS2_PLACEMENT_3D('',#1135,#921,#922);
#739=AXIS2_PLACEMENT_3D('',#1137,#924,#925);
#740=AXIS2_PLACEMENT_3D('',#1138,#926,#927);
#741=AXIS2_PLACEMENT_3D('',#1141,#930,#931);
#742=AXIS2_PLACEMENT_3D('',#1142,#932,#933);
#743=AXIS2_PLACEMENT_3D('',#1143,#934,#935);
#744=AXIS2_PLACEMENT_3D('',#1145,#937,#938);
#745=AXIS2_PLACEMENT_3D('',#1146,#939,#940);
#746=AXIS2_PLACEMENT_3D('',#1147,#941,#942);
#747=AXIS2_PLACEMENT_3D('',#1148,#943,#944);
#748=AXIS2_PLACEMENT_3D('',#1150,#945,#946);
#749=AXIS2_PLACEMENT_3D('',#1154,#948,#949);
#750=AXIS2_PLACEMENT_3D('',#1155,#950,#951);
#751=AXIS2_PLACEMENT_3D('',#1156,#952,#953);
#752=AXIS2_PLACEMENT_3D('',#1157,#954,#955);
#753=AXIS2_PLACEMENT_3D('',#1158,#956,#957);
#754=AXIS2_PLACEMENT_3D('',#1161,#958,#959);
#755=AXIS2_PLACEMENT_3D('',#1162,#960,#961);
#756=AXIS2_PLACEMENT_3D('',#1163,#962,#963);
#757=AXIS2_PLACEMENT_3D('',#1166,#964,#965);
#758=AXIS2_PLACEMENT_3D('',#1169,#968,#969);
#759=AXIS2_PLACEMENT_3D('',#1170,#970,#971);
#760=AXIS2_PLACEMENT_3D('',#1172,#972,#973);
#761=AXIS2_PLACEMENT_3D('',#1173,#974,#975);
#762=AXIS2_PLACEMENT_3D('',#1174,#976,#977);
#763=AXIS2_PLACEMENT_3D('',#1177,#979,#980);
#764=AXIS2_PLACEMENT_3D('',#1178,#981,#982);
#765=AXIS2_PLACEMENT_3D('',#1181,#984,#985);
#766=AXIS2_PLACEMENT_3D('',#1182,#986,#987);
#767=AXIS2_PLACEMENT_3D('',#1183,#988,#989);
#768=DIRECTION('axis',(0.,0.,1.));
#769=DIRECTION('refdir',(1.,0.,0.));
#770=DIRECTION('axis',(0.,0.,1.));
#771=DIRECTION('refdir',(1.,0.,0.));
#772=DIRECTION('axis',(0.,0.,1.));
#773=DIRECTION('refdir',(1.,0.,0.));
#774=DIRECTION('center_axis',(0.,0.,-1.));
#775=DIRECTION('ref_axis',(0.907432589040078,-0.42019768722355,0.));
#776=DIRECTION('',(0.,0.,-1.));
#777=DIRECTION('center_axis',(0.,0.,-1.));
#778=DIRECTION('ref_axis',(0.907432589040078,-0.42019768722355,0.));
#779=DIRECTION('',(0.,0.,1.));
#780=DIRECTION('center_axis',(0.,0.,1.));
#781=DIRECTION('ref_axis',(0.907432589040078,-0.42019768722355,0.));
#782=DIRECTION('center_axis',(0.,0.,1.));
#783=DIRECTION('ref_axis',(0.707106781186547,-0.707106781186548,0.));
#784=DIRECTION('center_axis',(0.,0.,1.));
#785=DIRECTION('ref_axis',(0.707106781186547,-0.707106781186548,0.));
#786=DIRECTION('',(0.,0.,-1.));
#787=DIRECTION('center_axis',(0.,0.,1.));
#788=DIRECTION('ref_axis',(0.707106781186547,-0.707106781186548,0.));
#789=DIRECTION('center_axis',(0.,0.,1.));
#790=DIRECTION('ref_axis',(0.707106781186547,-0.707106781186548,0.));
#791=DIRECTION('center_axis',(0.,0.,1.));
#792=DIRECTION('ref_axis',(0.707106781186547,-0.707106781186548,0.));
#793=DIRECTION('',(-0.707106781186547,0.707106781186548,0.));
#794=DIRECTION('center_axis',(0.,0.,-1.));
#795=DIRECTION('ref_axis',(0.707106781186548,0.707106781186548,0.));
#796=DIRECTION('',(0.707106781186547,-0.707106781186548,0.));
#797=DIRECTION('center_axis',(0.,0.,1.));
#798=DIRECTION('ref_axis',(0.707106781186547,-0.707106781186548,0.));
#799=DIRECTION('center_axis',(0.,0.,1.));
#800=DIRECTION('ref_axis',(0.42019768722355,0.907432589040078,0.));
#801=DIRECTION('center_axis',(0.,0.,1.));
#802=DIRECTION('ref_axis',(0.707106781186547,-0.707106781186548,0.));
#803=DIRECTION('',(-0.707106781186547,-0.707106781186548,0.));
#804=DIRECTION('center_axis',(0.,0.,-1.));
#805=DIRECTION('ref_axis',(-0.707106781186548,0.707106781186548,0.));
#806=DIRECTION('',(0.707106781186547,0.707106781186548,0.));
#807=DIRECTION('center_axis',(0.,0.,1.));
#808=DIRECTION('ref_axis',(0.707106781186547,-0.707106781186548,0.));
#809=DIRECTION('center_axis',(0.,0.,1.));
#810=DIRECTION('ref_axis',(-0.907432589040078,0.42019768722355,0.));
#811=DIRECTION('center_axis',(0.,0.,1.));
#812=DIRECTION('ref_axis',(0.707106781186547,-0.707106781186548,0.));
#813=DIRECTION('',(0.707106781186548,-0.707106781186547,0.));
#814=DIRECTION('center_axis',(0.,0.,-1.));
#815=DIRECTION('ref_axis',(-0.707106781186548,-0.707106781186548,0.));
#816=DIRECTION('',(-0.707106781186548,0.707106781186547,0.));
#817=DIRECTION('center_axis',(0.,0.,1.));
#818=DIRECTION('ref_axis',(0.707106781186547,-0.707106781186548,0.));
#819=DIRECTION('center_axis',(0.,0.,-1.));
#820=DIRECTION('ref_axis',(-0.42019768722355,-0.907432589040078,0.));
#821=DIRECTION('center_axis',(0.,0.,1.));
#822=DIRECTION('ref_axis',(0.707106781186547,-0.707106781186548,0.));
#823=DIRECTION('',(0.707106781186548,0.707106781186547,0.));
#824=DIRECTION('center_axis',(0.,0.,-1.));
#825=DIRECTION('ref_axis',(0.707106781186548,-0.707106781186548,0.));
#826=DIRECTION('',(-0.707106781186548,-0.707106781186547,0.));
#827=DIRECTION('center_axis',(0.,0.,-1.));
#828=DIRECTION('ref_axis',(0.707106781186547,-0.707106781186548,0.));
#829=DIRECTION('center_axis',(0.,0.,-1.));
#830=DIRECTION('ref_axis',(0.42019768722355,0.907432589040078,0.));
#831=DIRECTION('',(0.,0.,-1.));
#832=DIRECTION('center_axis',(0.,0.,-1.));
#833=DIRECTION('ref_axis',(0.42019768722355,0.907432589040078,0.));
#834=DIRECTION('',(0.,0.,1.));
#835=DIRECTION('center_axis',(0.,0.,1.));
#836=DIRECTION('ref_axis',(0.707106781186547,-0.707106781186548,0.));
#837=DIRECTION('center_axis',(0.,0.,1.));
#838=DIRECTION('ref_axis',(0.707106781186547,-0.707106781186548,0.));
#839=DIRECTION('',(0.,0.,1.));
#840=DIRECTION('center_axis',(0.,0.,1.));
#841=DIRECTION('ref_axis',(0.707106781186547,-0.707106781186548,0.));
#842=DIRECTION('',(0.707106781186548,0.707106781186547,0.));
#843=DIRECTION('center_axis',(0.,0.,1.));
#844=DIRECTION('ref_axis',(0.707106781186548,-0.707106781186548,0.));
#845=DIRECTION('',(-0.707106781186548,-0.707106781186547,0.));
#846=DIRECTION('center_axis',(0.,0.,1.));
#847=DIRECTION('ref_axis',(0.707106781186547,-0.707106781186548,0.));
#848=DIRECTION('center_axis',(0.,0.,1.));
#849=DIRECTION('ref_axis',(-0.42019768722355,-0.907432589040078,0.));
#850=DIRECTION('center_axis',(0.,0.,1.));
#851=DIRECTION('ref_axis',(0.707106781186547,-0.707106781186548,0.));
#852=DIRECTION('',(0.707106781186548,-0.707106781186547,0.));
#853=DIRECTION('center_axis',(0.,0.,1.));
#854=DIRECTION('ref_axis',(-0.707106781186548,-0.707106781186548,0.));
#855=DIRECTION('',(-0.707106781186548,0.707106781186547,0.));
#856=DIRECTION('center_axis',(0.,0.,1.));
#857=DIRECTION('ref_axis',(0.707106781186547,-0.707106781186548,0.));
#858=DIRECTION('center_axis',(0.,0.,-1.));
#859=DIRECTION('ref_axis',(-0.907432589040078,0.42019768722355,0.));
#860=DIRECTION('center_axis',(0.,0.,1.));
#861=DIRECTION('ref_axis',(0.707106781186547,-0.707106781186548,0.));
#862=DIRECTION('',(-0.707106781186547,-0.707106781186548,0.));
#863=DIRECTION('center_axis',(0.,0.,1.));
#864=DIRECTION('ref_axis',(-0.707106781186548,0.707106781186548,0.));
#865=DIRECTION('',(0.707106781186547,0.707106781186548,0.));
#866=DIRECTION('center_axis',(0.,0.,1.));
#867=DIRECTION('ref_axis',(0.707106781186547,-0.707106781186548,0.));
#868=DIRECTION('',(-0.707106781186547,0.707106781186548,0.));
#869=DIRECTION('center_axis',(0.,0.,1.));
#870=DIRECTION('ref_axis',(0.707106781186548,0.707106781186548,0.));
#871=DIRECTION('',(0.707106781186547,-0.707106781186548,0.));
#872=DIRECTION('center_axis',(0.,0.,1.));
#873=DIRECTION('ref_axis',(0.707106781186547,-0.707106781186548,0.));
#874=DIRECTION('center_axis',(0.,0.,1.));
#875=DIRECTION('ref_axis',(0.707106781186547,-0.707106781186548,0.));
#876=DIRECTION('center_axis',(0.,0.,-1.));
#877=DIRECTION('ref_axis',(-0.907432589040078,0.42019768722355,0.));
#878=DIRECTION('',(0.,0.,-1.));
#879=DIRECTION('',(0.,0.,1.));
#880=DIRECTION('center_axis',(0.,0.,1.));
#881=DIRECTION('ref_axis',(0.707106781186547,-0.707106781186548,0.));
#882=DIRECTION('',(0.,0.,-1.));
#883=DIRECTION('center_axis',(0.,0.,1.));
#884=DIRECTION('ref_axis',(0.707106781186547,-0.707106781186548,0.));
#885=DIRECTION('',(0.,0.,1.));
#886=DIRECTION('',(0.,0.,-1.));
#887=DIRECTION('center_axis',(0.,0.,-1.));
#888=DIRECTION('ref_axis',(-0.42019768722355,-0.907432589040078,0.));
#889=DIRECTION('',(0.,0.,-1.));
#890=DIRECTION('center_axis',(0.,0.,1.));
#891=DIRECTION('ref_axis',(0.707106781186547,-0.707106781186548,0.));
#892=DIRECTION('',(0.,0.,1.));
#893=DIRECTION('center_axis',(0.,0.,1.));
#894=DIRECTION('ref_axis',(0.707106781186547,-0.707106781186548,0.));
#895=DIRECTION('',(0.,0.,-1.));
#896=DIRECTION('center_axis',(-0.707106781186548,0.707106781186547,0.));
#897=DIRECTION('ref_axis',(0.707106781186547,0.707106781186548,0.));
#898=DIRECTION('',(0.,0.,-1.));
#899=DIRECTION('center_axis',(0.,0.,-1.));
#900=DIRECTION('ref_axis',(-0.707106781186548,0.707106781186548,0.));
#901=DIRECTION('',(0.,0.,-1.));
#902=DIRECTION('center_axis',(0.707106781186548,-0.707106781186547,0.));
#903=DIRECTION('ref_axis',(-0.707106781186547,-0.707106781186548,0.));
#904=DIRECTION('center_axis',(-0.707106781186547,-0.707106781186548,0.));
#905=DIRECTION('ref_axis',(-0.707106781186548,0.707106781186547,0.));
#906=DIRECTION('',(0.,0.,-1.));
#907=DIRECTION('center_axis',(0.,0.,-1.));
#908=DIRECTION('ref_axis',(-0.707106781186548,-0.707106781186548,0.));
#909=DIRECTION('',(0.,0.,-1.));
#910=DIRECTION('center_axis',(0.707106781186547,0.707106781186548,0.));
#911=DIRECTION('ref_axis',(0.707106781186548,-0.707106781186547,0.));
#912=DIRECTION('',(0.,0.,1.));
#913=DIRECTION('center_axis',(0.707106781186547,-0.707106781186548,0.));
#914=DIRECTION('ref_axis',(-0.707106781186548,-0.707106781186547,0.));
#915=DIRECTION('',(0.,0.,-1.));
#916=DIRECTION('center_axis',(0.,0.,-1.));
#917=DIRECTION('ref_axis',(0.707106781186548,-0.707106781186548,0.));
#918=DIRECTION('',(0.,0.,-1.));
#919=DIRECTION('center_axis',(-0.707106781186547,0.707106781186548,0.));
#920=DIRECTION('ref_axis',(0.707106781186548,0.707106781186547,0.));
#921=DIRECTION('center_axis',(0.,0.,1.));
#922=DIRECTION('ref_axis',(0.707106781186547,-0.707106781186548,0.));
#923=DIRECTION('',(0.,0.,1.));
#924=DIRECTION('center_axis',(0.,0.,1.));
#925=DIRECTION('ref_axis',(0.707106781186547,-0.707106781186548,0.));
#926=DIRECTION('center_axis',(0.,0.,-1.));
#927=DIRECTION('ref_axis',(0.707106781186548,0.707106781186548,0.));
#928=DIRECTION('',(0.,0.,-1.));
#929=DIRECTION('',(0.,0.,-1.));
#930=DIRECTION('center_axis',(-0.707106781186548,-0.707106781186547,0.));
#931=DIRECTION('ref_axis',(-0.707106781186547,0.707106781186548,0.));
#932=DIRECTION('center_axis',(0.707106781186548,0.707106781186547,0.));
#933=DIRECTION('ref_axis',(0.707106781186547,-0.707106781186548,0.));
#934=DIRECTION('center_axis',(0.,0.,-1.));
#935=DIRECTION('ref_axis',(0.707106781186547,-0.707106781186548,0.));
#936=DIRECTION('',(0.,0.,-1.));
#937=DIRECTION('axis',(0.,0.,1.));
#938=DIRECTION('refdir',(1.,0.,0.));
#939=DIRECTION('',(2.33123528862055E-15,2.33123528862058E-15,0.99999999999998));
#940=DIRECTION('',(0.707106781186545,0.707106781186554,-1.63757896132209E-15));
#941=DIRECTION('',(1.35416949214728E-35,1.01643953670516E-20,1.));
#942=DIRECTION('',(-0.996194698091746,-0.0871557427476494,8.85885427796151E-22));
#943=DIRECTION('center_axis',(0.,0.,1.));
#944=DIRECTION('ref_axis',(-1.,0.,0.));
#945=DIRECTION('center_axis',(0.,0.,1.));
#946=DIRECTION('ref_axis',(-1.,0.,0.));
#947=DIRECTION('',(0.,0.,-1.));
#948=DIRECTION('center_axis',(0.,0.,-1.));
#949=DIRECTION('ref_axis',(-1.,0.,0.));
#950=DIRECTION('center_axis',(0.,0.,-1.));
#951=DIRECTION('ref_axis',(-1.,0.,0.));
#952=DIRECTION('center_axis',(0.,0.,1.));
#953=DIRECTION('ref_axis',(-1.,0.,0.));
#954=DIRECTION('center_axis',(0.,0.,1.));
#955=DIRECTION('ref_axis',(1.,0.,0.));
#956=DIRECTION('center_axis',(0.,0.,1.));
#957=DIRECTION('ref_axis',(1.,0.,0.));
#958=DIRECTION('center_axis',(0.,0.,-1.));
#959=DIRECTION('ref_axis',(-1.,0.,0.));
#960=DIRECTION('center_axis',(0.,0.,-1.));
#961=DIRECTION('ref_axis',(-1.,0.,0.));
#962=DIRECTION('center_axis',(0.,0.,-1.));
#963=DIRECTION('ref_axis',(1.,1.22464679914735E-16,0.));
#964=DIRECTION('center_axis',(0.,0.,-1.));
#965=DIRECTION('ref_axis',(-1.,0.,0.));
#966=DIRECTION('',(0.,0.,1.));
#967=DIRECTION('',(0.,0.,-1.));
#968=DIRECTION('center_axis',(0.,0.,1.));
#969=DIRECTION('ref_axis',(-1.,0.,0.));
#970=DIRECTION('center_axis',(0.,0.,1.));
#971=DIRECTION('ref_axis',(-1.,0.,0.));
#972=DIRECTION('center_axis',(0.,0.,-1.));
#973=DIRECTION('ref_axis',(-1.,0.,0.));
#974=DIRECTION('center_axis',(0.,0.,1.));
#975=DIRECTION('ref_axis',(1.,1.22464679914735E-16,0.));
#976=DIRECTION('center_axis',(0.,0.,1.));
#977=DIRECTION('ref_axis',(1.,0.,0.));
#978=DIRECTION('',(0.,0.,-1.));
#979=DIRECTION('center_axis',(0.,0.,-1.));
#980=DIRECTION('ref_axis',(1.,0.,0.));
#981=DIRECTION('center_axis',(0.,0.,1.));
#982=DIRECTION('ref_axis',(1.,0.,0.));
#983=DIRECTION('',(0.,0.,-1.));
#984=DIRECTION('center_axis',(0.,0.,1.));
#985=DIRECTION('ref_axis',(1.,0.,0.));
#986=DIRECTION('center_axis',(0.,0.,1.));
#987=DIRECTION('ref_axis',(1.,0.,0.));
#988=DIRECTION('',(0.,0.,1.));
#989=DIRECTION('',(1.,0.,0.));
#990=CARTESIAN_POINT('',(0.,0.,0.));
#991=CARTESIAN_POINT('',(0.,0.,0.));
#992=CARTESIAN_POINT('',(0.,0.,0.));
#993=CARTESIAN_POINT('Origin',(45.0505914487482,-71.8640738686214,11.));
#994=CARTESIAN_POINT('',(17.6374167316048,-41.8484054281658,8.));
#995=CARTESIAN_POINT('',(17.6374167316048,-41.8484054281658,0.));
#996=CARTESIAN_POINT('',(17.6374167316048,-41.8484054281658,11.));
#997=CARTESIAN_POINT('',(72.4214776715677,-41.8098381042993,0.));
#998=CARTESIAN_POINT('Origin',(45.0505914487482,-71.8640738686214,0.));
#999=CARTESIAN_POINT('',(72.4214776715677,-41.8098381042993,8.));
#1000=CARTESIAN_POINT('',(72.4214776715677,-41.8098381042993,11.));
#1001=CARTESIAN_POINT('Origin',(45.0505914487482,-71.8640738686214,8.));
#1002=CARTESIAN_POINT('Origin',(45.,0.,0.));
#1003=CARTESIAN_POINT('',(11.9610777546209,-37.5290503059136,8.));
#1004=CARTESIAN_POINT('Origin',(45.,0.,8.));
#1005=CARTESIAN_POINT('',(11.9610777546209,-37.5290503059136,0.));
#1006=CARTESIAN_POINT('',(11.9610777546209,-37.5290503059136,0.));
#1007=CARTESIAN_POINT('Origin',(45.,0.,0.));
#1008=CARTESIAN_POINT('Origin',(45.,0.,8.));
#1009=CARTESIAN_POINT('',(78.0389222453791,-37.5290503059136,8.));
#1010=CARTESIAN_POINT('Origin',(45.,0.,8.));
#1011=CARTESIAN_POINT('',(57.3996123828529,-16.8897404433875,8.));
#1012=CARTESIAN_POINT('',(60.4326054993964,-19.922733559931,8.));
#1013=CARTESIAN_POINT('',(61.8897404433875,-12.3996123828529,8.));
#1014=CARTESIAN_POINT('Origin',(59.6446764131202,-14.6446764131202,8.));
#1015=CARTESIAN_POINT('',(82.5290503059136,-33.0389222453791,8.));
#1016=CARTESIAN_POINT('',(54.5674022368274,-5.07727417629283,8.));
#1017=CARTESIAN_POINT('',(86.8484054281658,-27.3625832683952,8.));
#1018=CARTESIAN_POINT('Origin',(45.,0.,8.));
#1019=CARTESIAN_POINT('',(86.8098381042993,27.4214776715677,8.));
#1020=CARTESIAN_POINT('Origin',(116.864073868621,0.0505914487481884,8.));
#1021=CARTESIAN_POINT('',(82.5290503059136,33.0389222453791,8.));
#1022=CARTESIAN_POINT('Origin',(45.,0.,8.));
#1023=CARTESIAN_POINT('',(61.8897404433875,12.3996123828529,8.));
#1024=CARTESIAN_POINT('',(64.922733559931,15.4326054993964,8.));
#1025=CARTESIAN_POINT('',(57.3996123828529,16.8897404433875,8.));
#1026=CARTESIAN_POINT('Origin',(59.6446764131202,14.6446764131202,8.));
#1027=CARTESIAN_POINT('',(78.0389222453791,37.5290503059136,8.));
#1028=CARTESIAN_POINT('',(50.0772741762928,9.5674022368274,8.));
#1029=CARTESIAN_POINT('',(72.3625832683952,41.8484054281658,8.));
#1030=CARTESIAN_POINT('Origin',(45.,0.,8.));
#1031=CARTESIAN_POINT('',(17.5785223284323,41.8098381042993,8.));
#1032=CARTESIAN_POINT('Origin',(44.9494085512518,71.8640738686214,8.));
#1033=CARTESIAN_POINT('',(11.9610777546209,37.5290503059136,8.));
#1034=CARTESIAN_POINT('Origin',(45.,0.,8.));
#1035=CARTESIAN_POINT('',(32.6003876171471,16.8897404433875,8.));
#1036=CARTESIAN_POINT('',(29.5673945006036,19.922733559931,8.));
#1037=CARTESIAN_POINT('',(28.1102595566125,12.3996123828529,8.));
#1038=CARTESIAN_POINT('Origin',(30.3553235868798,14.6446764131202,8.));
#1039=CARTESIAN_POINT('',(7.47094969408636,33.0389222453791,8.));
#1040=CARTESIAN_POINT('',(35.4325977631726,5.07727417629283,8.));
#1041=CARTESIAN_POINT('',(3.15159457183416,27.3625832683952,8.));
#1042=CARTESIAN_POINT('Origin',(45.,0.,8.));
#1043=CARTESIAN_POINT('',(3.19016189570071,-27.4214776715677,8.));
#1044=CARTESIAN_POINT('Origin',(-26.8640738686214,-0.0505914487481796,8.));
#1045=CARTESIAN_POINT('',(7.47094969408636,-33.0389222453791,8.));
#1046=CARTESIAN_POINT('Origin',(45.,0.,8.));
#1047=CARTESIAN_POINT('',(28.1102595566125,-12.3996123828529,8.));
#1048=CARTESIAN_POINT('',(25.077266440069,-15.4326054993964,8.));
#1049=CARTESIAN_POINT('',(32.6003876171471,-16.8897404433875,8.));
#1050=CARTESIAN_POINT('Origin',(30.3553235868798,-14.6446764131202,8.));
#1051=CARTESIAN_POINT('',(39.9227258237072,-9.5674022368274,8.));
#1052=CARTESIAN_POINT('',(43.1261670298557,1.87383297014435,8.));
#1053=CARTESIAN_POINT('Origin',(45.,0.,8.));
#1054=CARTESIAN_POINT('Origin',(116.864073868621,0.0505914487481884,11.));
#1055=CARTESIAN_POINT('',(86.8484054281658,-27.3625832683952,0.));
#1056=CARTESIAN_POINT('',(86.8484054281658,-27.3625832683952,11.));
#1057=CARTESIAN_POINT('',(86.8098381042993,27.4214776715677,0.));
#1058=CARTESIAN_POINT('Origin',(116.864073868621,0.0505914487481884,0.));
#1059=CARTESIAN_POINT('',(86.8098381042993,27.4214776715677,11.));
#1060=CARTESIAN_POINT('Origin',(45.,0.,0.));
#1061=CARTESIAN_POINT('',(82.5290503059136,33.0389222453791,0.));
#1062=CARTESIAN_POINT('Origin',(45.,0.,0.));
#1063=CARTESIAN_POINT('',(82.5290503059136,33.0389222453791,0.));
#1064=CARTESIAN_POINT('Origin',(45.,0.,0.));
#1065=CARTESIAN_POINT('',(32.6003876171471,-16.8897404433875,0.));
#1066=CARTESIAN_POINT('',(39.9227258237072,-9.5674022368274,0.));
#1067=CARTESIAN_POINT('',(28.1102595566125,-12.3996123828529,0.));
#1068=CARTESIAN_POINT('Origin',(30.3553235868798,-14.6446764131202,0.));
#1069=CARTESIAN_POINT('',(7.47094969408636,-33.0389222453791,0.));
#1070=CARTESIAN_POINT('',(25.077266440069,-15.4326054993964,0.));
#1071=CARTESIAN_POINT('',(3.19016189570071,-27.4214776715677,0.));
#1072=CARTESIAN_POINT('Origin',(45.,0.,0.));
#1073=CARTESIAN_POINT('',(3.15159457183416,27.3625832683952,0.));
#1074=CARTESIAN_POINT('Origin',(-26.8640738686214,-0.0505914487481796,0.));
#1075=CARTESIAN_POINT('',(7.47094969408636,33.0389222453791,0.));
#1076=CARTESIAN_POINT('Origin',(45.,0.,0.));
#1077=CARTESIAN_POINT('',(28.1102595566125,12.3996123828529,0.));
#1078=CARTESIAN_POINT('',(35.4325977631726,5.07727417629283,0.));
#1079=CARTESIAN_POINT('',(32.6003876171471,16.8897404433875,0.));
#1080=CARTESIAN_POINT('Origin',(30.3553235868798,14.6446764131202,0.));
#1081=CARTESIAN_POINT('',(11.9610777546209,37.5290503059136,0.));
#1082=CARTESIAN_POINT('',(29.5673945006036,19.922733559931,0.));
#1083=CARTESIAN_POINT('',(17.5785223284323,41.8098381042993,0.));
#1084=CARTESIAN_POINT('Origin',(45.,0.,0.));
#1085=CARTESIAN_POINT('',(72.3625832683952,41.8484054281658,0.));
#1086=CARTESIAN_POINT('Origin',(44.9494085512518,71.8640738686214,0.));
#1087=CARTESIAN_POINT('',(78.0389222453791,37.5290503059136,0.));
#1088=CARTESIAN_POINT('Origin',(45.,0.,0.));
#1089=CARTESIAN_POINT('',(57.3996123828529,16.8897404433875,0.));
#1090=CARTESIAN_POINT('',(50.0772741762928,9.5674022368274,0.));
#1091=CARTESIAN_POINT('',(61.8897404433875,12.3996123828529,0.));
#1092=CARTESIAN_POINT('Origin',(59.6446764131202,14.6446764131202,0.));
#1093=CARTESIAN_POINT('',(64.922733559931,15.4326054993964,0.));
#1094=CARTESIAN_POINT('',(82.5290503059136,-33.0389222453791,0.));
#1095=CARTESIAN_POINT('Origin',(45.,0.,0.));
#1096=CARTESIAN_POINT('',(61.8897404433875,-12.3996123828529,0.));
#1097=CARTESIAN_POINT('',(54.5674022368274,-5.07727417629283,0.));
#1098=CARTESIAN_POINT('',(57.3996123828529,-16.8897404433875,0.));
#1099=CARTESIAN_POINT('Origin',(59.6446764131202,-14.6446764131202,0.));
#1100=CARTESIAN_POINT('',(78.0389222453791,-37.5290503059136,0.));
#1101=CARTESIAN_POINT('',(60.4326054993964,-19.922733559931,0.));
#1102=CARTESIAN_POINT('Origin',(45.,0.,0.));
#1103=CARTESIAN_POINT('',(43.1261670298557,1.87383297014435,0.));
#1104=CARTESIAN_POINT('Origin',(45.,0.,0.));
#1105=CARTESIAN_POINT('Origin',(44.9494085512518,71.8640738686214,11.));
#1106=CARTESIAN_POINT('',(72.3625832683952,41.8484054281658,11.));
#1107=CARTESIAN_POINT('',(17.5785223284323,41.8098381042993,11.));
#1108=CARTESIAN_POINT('Origin',(45.,0.,0.));
#1109=CARTESIAN_POINT('',(78.0389222453791,37.5290503059136,0.));
#1110=CARTESIAN_POINT('Origin',(45.,0.,0.));
#1111=CARTESIAN_POINT('',(3.15159457183416,27.3625832683952,11.));
#1112=CARTESIAN_POINT('',(7.47094969408636,33.0389222453791,0.));
#1113=CARTESIAN_POINT('Origin',(-26.8640738686214,-0.0505914487481796,11.));
#1114=CARTESIAN_POINT('',(3.19016189570071,-27.4214776715677,11.));
#1115=CARTESIAN_POINT('Origin',(45.,0.,0.));
#1116=CARTESIAN_POINT('',(7.47094969408636,-33.0389222453791,0.));
#1117=CARTESIAN_POINT('Origin',(45.,0.,0.));
#1118=CARTESIAN_POINT('',(82.5290503059136,-33.0389222453791,0.));
#1119=CARTESIAN_POINT('Origin',(57.3996123828529,16.8897404433875,8.));
#1120=CARTESIAN_POINT('',(57.3996123828529,16.8897404433875,8.));
#1121=CARTESIAN_POINT('Origin',(59.6446764131202,14.6446764131202,8.));
#1122=CARTESIAN_POINT('',(61.8897404433875,12.3996123828529,8.));
#1123=CARTESIAN_POINT('Origin',(82.6004030895947,33.1102750290601,8.));
#1124=CARTESIAN_POINT('Origin',(28.1102595566125,12.3996123828529,8.));
#1125=CARTESIAN_POINT('',(28.1102595566125,12.3996123828529,8.));
#1126=CARTESIAN_POINT('Origin',(30.3553235868798,14.6446764131202,8.));
#1127=CARTESIAN_POINT('',(32.6003876171471,16.8897404433875,8.));
#1128=CARTESIAN_POINT('Origin',(11.8897249709399,37.6004030895947,8.));
#1129=CARTESIAN_POINT('',(11.9610777546209,37.5290503059136,0.));
#1130=CARTESIAN_POINT('Origin',(32.6003876171471,-16.8897404433875,8.));
#1131=CARTESIAN_POINT('',(32.6003876171471,-16.8897404433875,8.));
#1132=CARTESIAN_POINT('Origin',(30.3553235868798,-14.6446764131202,8.));
#1133=CARTESIAN_POINT('',(28.1102595566125,-12.3996123828529,8.));
#1134=CARTESIAN_POINT('Origin',(7.39959691040533,-33.1102750290601,8.));
#1135=CARTESIAN_POINT('Origin',(45.,0.,0.));
#1136=CARTESIAN_POINT('',(78.0389222453791,-37.5290503059136,0.));
#1137=CARTESIAN_POINT('Origin',(45.,0.,0.));
#1138=CARTESIAN_POINT('Origin',(59.6446764131202,-14.6446764131202,8.));
#1139=CARTESIAN_POINT('',(61.8897404433875,-12.3996123828529,8.));
#1140=CARTESIAN_POINT('',(57.3996123828529,-16.8897404433875,8.));
#1141=CARTESIAN_POINT('Origin',(78.1102750290601,-37.6004030895947,8.));
#1142=CARTESIAN_POINT('Origin',(61.8897404433875,-12.3996123828529,8.));
#1143=CARTESIAN_POINT('Origin',(45.,0.,3.6));
#1144=CARTESIAN_POINT('',(43.1261670298557,1.87383297014435,3.6));
#1145=CARTESIAN_POINT('',(0.,0.,0.));
#1146=CARTESIAN_POINT('',(-257.530505153394,-31.8198051533948,8.00000000000031));
#1147=CARTESIAN_POINT('',(-71.8640738686214,-0.0505914487481796,-2.20984531848241E-18));
#1148=CARTESIAN_POINT('Origin',(-50.,9.99200722162641E-15,8.));
#1149=CARTESIAN_POINT('',(-47.,1.03594012613706E-14,16.));
#1150=CARTESIAN_POINT('Origin',(-50.,9.99200722162641E-15,16.));
#1151=CARTESIAN_POINT('',(-47.,1.03594012613706E-14,8.));
#1152=CARTESIAN_POINT('',(-47.,1.03594012613706E-14,8.));
#1153=CARTESIAN_POINT('',(-53.,-6.49062803548097E-15,8.));
#1154=CARTESIAN_POINT('Origin',(-50.,9.99200722162641E-15,8.));
#1155=CARTESIAN_POINT('Origin',(-50.,9.99200722162641E-15,8.));
#1156=CARTESIAN_POINT('Origin',(-50.,9.99200722162641E-15,16.));
#1157=CARTESIAN_POINT('Origin',(0.,0.,8.));
#1158=CARTESIAN_POINT('Origin',(0.,0.,8.));
#1159=CARTESIAN_POINT('',(-28.9490043196433,27.4947408407731,8.));
#1160=CARTESIAN_POINT('',(-28.9490043196433,-27.4947408407731,8.));
#1161=CARTESIAN_POINT('Origin',(0.,0.,8.));
#1162=CARTESIAN_POINT('Origin',(-70.7107,0.,8.));
#1163=CARTESIAN_POINT('Origin',(-70.7107,0.,16.));
#1164=CARTESIAN_POINT('',(-28.9490043196433,27.4947408407731,16.));
#1165=CARTESIAN_POINT('',(-28.9490043196433,-27.4947408407731,16.));
#1166=CARTESIAN_POINT('Origin',(-70.7107,0.,16.));
#1167=CARTESIAN_POINT('',(-28.9490043196433,27.494740840773,16.));
#1168=CARTESIAN_POINT('',(-28.9490043196433,-27.494740840773,16.));
#1169=CARTESIAN_POINT('Origin',(0.,0.,16.));
#1170=CARTESIAN_POINT('Origin',(0.,0.,16.));
#1171=CARTESIAN_POINT('',(-2.65,-3.24531401774049E-16,16.));
#1172=CARTESIAN_POINT('Origin',(0.,0.,16.));
#1173=CARTESIAN_POINT('Origin',(0.,0.,8.));
#1174=CARTESIAN_POINT('Origin',(0.,0.,0.));
#1175=CARTESIAN_POINT('',(-2.65,-3.24531401774049E-16,0.));
#1176=CARTESIAN_POINT('',(-2.65,-3.24531401774049E-16,0.));
#1177=CARTESIAN_POINT('Origin',(0.,0.,0.));
#1178=CARTESIAN_POINT('Origin',(0.,0.,0.));
#1179=CARTESIAN_POINT('',(-53.,-6.49062803548097E-15,0.));
#1180=CARTESIAN_POINT('',(-53.,-6.49062803548097E-15,0.));
#1181=CARTESIAN_POINT('Origin',(0.,0.,0.));
#1182=CARTESIAN_POINT('Origin',(0.,0.,0.));
#1183=CARTESIAN_POINT('',(155.,0.,0.));
#1184=UNCERTAINTY_MEASURE_WITH_UNIT(LENGTH_MEASURE(0.01),#1194,
'DISTANCE_ACCURACY_VALUE',
'Maximum model space distance between geometric entities at asserted c
onnectivities');
#1185=UNCERTAINTY_MEASURE_WITH_UNIT(LENGTH_MEASURE(0.01),#1194,
'DISTANCE_ACCURACY_VALUE',
'Maximum model space distance between geometric entities at asserted c
onnectivities');
#1186=UNCERTAINTY_MEASURE_WITH_UNIT(LENGTH_MEASURE(0.01),#1194,
'DISTANCE_ACCURACY_VALUE',
'Maximum model space distance between geometric entities at asserted c
onnectivities');
#1187=UNCERTAINTY_MEASURE_WITH_UNIT(LENGTH_MEASURE(0.01),#1194,
'DISTANCE_ACCURACY_VALUE',
'Maximum model space distance between geometric entities at asserted c
onnectivities');
#1188=UNCERTAINTY_MEASURE_WITH_UNIT(LENGTH_MEASURE(0.01),#1194,
'DISTANCE_ACCURACY_VALUE',
'Maximum model space distance between geometric entities at asserted c
onnectivities');
#1189=(
GEOMETRIC_REPRESENTATION_CONTEXT(3)
GLOBAL_UNCERTAINTY_ASSIGNED_CONTEXT((#1184))
GLOBAL_UNIT_ASSIGNED_CONTEXT((#1194,#1196,#1197))
REPRESENTATION_CONTEXT('','3D')
);
#1190=(
GEOMETRIC_REPRESENTATION_CONTEXT(3)
GLOBAL_UNCERTAINTY_ASSIGNED_CONTEXT((#1185))
GLOBAL_UNIT_ASSIGNED_CONTEXT((#1194,#1196,#1197))
REPRESENTATION_CONTEXT('','3D')
);
#1191=(
GEOMETRIC_REPRESENTATION_CONTEXT(3)
GLOBAL_UNCERTAINTY_ASSIGNED_CONTEXT((#1186))
GLOBAL_UNIT_ASSIGNED_CONTEXT((#1194,#1196,#1197))
REPRESENTATION_CONTEXT('','3D')
);
#1192=(
GEOMETRIC_REPRESENTATION_CONTEXT(3)
GLOBAL_UNCERTAINTY_ASSIGNED_CONTEXT((#1187))
GLOBAL_UNIT_ASSIGNED_CONTEXT((#1194,#1196,#1197))
REPRESENTATION_CONTEXT('','3D')
);
#1193=(
GEOMETRIC_REPRESENTATION_CONTEXT(3)
GLOBAL_UNCERTAINTY_ASSIGNED_CONTEXT((#1188))
GLOBAL_UNIT_ASSIGNED_CONTEXT((#1194,#1196,#1197))
REPRESENTATION_CONTEXT('','3D')
);
#1194=(
LENGTH_UNIT()
NAMED_UNIT(*)
SI_UNIT(.MILLI.,.METRE.)
);
#1195=(
LENGTH_UNIT()
NAMED_UNIT(*)
SI_UNIT($,.METRE.)
);
#1196=(
NAMED_UNIT(*)
PLANE_ANGLE_UNIT()
SI_UNIT($,.RADIAN.)
);
#1197=(
NAMED_UNIT(*)
SI_UNIT($,.STERADIAN.)
SOLID_ANGLE_UNIT()
);
#1198=SHAPE_DEFINITION_REPRESENTATION(#1202,#1209);
#1199=SHAPE_DEFINITION_REPRESENTATION(#1203,#1210);
#1200=SHAPE_DEFINITION_REPRESENTATION(#1204,#1211);
#1201=SHAPE_DEFINITION_REPRESENTATION(#1205,#1212);
#1202=PRODUCT_DEFINITION_SHAPE('',$,#1214);
#1203=PRODUCT_DEFINITION_SHAPE('',$,#1215);
#1204=PRODUCT_DEFINITION_SHAPE('',$,#1216);
#1205=PRODUCT_DEFINITION_SHAPE('',$,#1217);
#1206=PRODUCT_DEFINITION_SHAPE($,$,#20);
#1207=PRODUCT_DEFINITION_SHAPE($,$,#21);
#1208=PRODUCT_DEFINITION_SHAPE($,$,#22);
#1209=SHAPE_REPRESENTATION('',(#680,#767),#1189);
#1210=SHAPE_REPRESENTATION('',(#681,#745,#746),#1190);
#1211=SHAPE_REPRESENTATION('',(#682),#1191);
#1212=SHAPE_REPRESENTATION('',(#744),#1192);
#1213=PRODUCT_DEFINITION_CONTEXT('part definition',#1227,'design');
#1214=PRODUCT_DEFINITION('2026-07-27-11-49-02-411','drivegear',#1218,#1213);
#1215=PRODUCT_DEFINITION('2026-07-26-16-47-25-294','ganeva',#1219,#1213);
#1216=PRODUCT_DEFINITION('2026-07-26-16-49-36-809','Star wheel',#1220,#1213);
#1217=PRODUCT_DEFINITION('2026-07-26-17-59-35-827','drive wheel',#1221,
#1213);
#1218=PRODUCT_DEFINITION_FORMATION('',$,#1229);
#1219=PRODUCT_DEFINITION_FORMATION('',$,#1230);
#1220=PRODUCT_DEFINITION_FORMATION('',$,#1231);
#1221=PRODUCT_DEFINITION_FORMATION('',$,#1232);
#1222=PRODUCT_RELATED_PRODUCT_CATEGORY('drivegear','drivegear',(#1229));
#1223=PRODUCT_RELATED_PRODUCT_CATEGORY('ganeva','ganeva',(#1230));
#1224=PRODUCT_RELATED_PRODUCT_CATEGORY('Star wheel','Star wheel',(#1231));
#1225=PRODUCT_RELATED_PRODUCT_CATEGORY('drive wheel','drive wheel',(#1232));
#1226=APPLICATION_PROTOCOL_DEFINITION('international standard',
'automotive_design',2009,#1227);
#1227=APPLICATION_CONTEXT(
'Core Data for Automotive Mechanical Design Process');
#1228=PRODUCT_CONTEXT('part definition',#1227,'mechanical');
#1229=PRODUCT('2026-07-27-11-49-02-411','drivegear',$,(#1228));
#1230=PRODUCT('2026-07-26-16-47-25-294','ganeva',$,(#1228));
#1231=PRODUCT('2026-07-26-16-49-36-809','Star wheel',$,(#1228));
#1232=PRODUCT('2026-07-26-17-59-35-827','drive wheel',$,(#1228));
#1233=PRESENTATION_STYLE_ASSIGNMENT((#1234));
#1234=SURFACE_STYLE_USAGE(.BOTH.,#1235);
#1235=SURFACE_SIDE_STYLE('',(#1236));
#1236=SURFACE_STYLE_FILL_AREA(#1237);
#1237=FILL_AREA_STYLE('Steel - Satin',(#1238));
#1238=FILL_AREA_STYLE_COLOUR('Steel - Satin',#1239);
#1239=COLOUR_RGB('Steel - Satin',0.627450980392157,0.627450980392157,0.627450980392157);
ENDSEC;
END-ISO-10303-21;
