ISO-10303-21;
HEADER;
/* Generated by software containing ST-Developer
 * from STEP Tools, Inc. (www.steptools.com) 
 */

FILE_DESCRIPTION(
/* description */ (''),
/* implementation_level */ '2;1');

FILE_NAME(
/* name */ 'Nema 17 -  Geneva Drive.step',
/* time_stamp */ '2026-07-30T13:19:54-04:00',
/* author */ (''),
/* organization */ (''),
/* preprocessor_version */ 'ST-DEVELOPER v20.1',
/* originating_system */ 'Autodesk Translation Framework v15.8.0.0',
/* authorisation */ '');

FILE_SCHEMA (('AUTOMOTIVE_DESIGN { 1 0 10303 214 3 1 1 }'));
ENDSEC;

DATA;
#10=MECHANICAL_DESIGN_GEOMETRIC_PRESENTATION_REPRESENTATION('',(#27,#28),
#1236);
#11=ITEM_DEFINED_TRANSFORMATION($,$,#708,#771);
#12=ITEM_DEFINED_TRANSFORMATION($,$,#770,#772);
#13=ITEM_DEFINED_TRANSFORMATION($,$,#707,#795);
#14=(
REPRESENTATION_RELATIONSHIP($,$,#1254,#1253)
REPRESENTATION_RELATIONSHIP_WITH_TRANSFORMATION(#11)
SHAPE_REPRESENTATION_RELATIONSHIP()
);
#15=(
REPRESENTATION_RELATIONSHIP($,$,#1255,#1253)
REPRESENTATION_RELATIONSHIP_WITH_TRANSFORMATION(#12)
SHAPE_REPRESENTATION_RELATIONSHIP()
);
#16=(
REPRESENTATION_RELATIONSHIP($,$,#1253,#1252)
REPRESENTATION_RELATIONSHIP_WITH_TRANSFORMATION(#13)
SHAPE_REPRESENTATION_RELATIONSHIP()
);
#17=CONTEXT_DEPENDENT_SHAPE_REPRESENTATION(#14,#1249);
#18=CONTEXT_DEPENDENT_SHAPE_REPRESENTATION(#15,#1250);
#19=CONTEXT_DEPENDENT_SHAPE_REPRESENTATION(#16,#1251);
#20=NEXT_ASSEMBLY_USAGE_OCCURRENCE('Star wheel:1','Star wheel:1',
'Star wheel:1',#1258,#1259,'Star wheel:1');
#21=NEXT_ASSEMBLY_USAGE_OCCURRENCE('drive wheel:1','drive wheel:1',
'drive wheel:1',#1258,#1260,'drive wheel:1');
#22=NEXT_ASSEMBLY_USAGE_OCCURRENCE('ganeva:1','ganeva:1','ganeva:1',#1257,
#1258,'ganeva:1');
#23=SHAPE_REPRESENTATION_RELATIONSHIP('SRR','None',#1254,#25);
#24=SHAPE_REPRESENTATION_RELATIONSHIP('SRR','None',#1252,#26);
#25=ADVANCED_BREP_SHAPE_REPRESENTATION('',(#29),#1234);
#26=ADVANCED_BREP_SHAPE_REPRESENTATION('',(#30),#1232);
#27=STYLED_ITEM('',(#1276),#29);
#28=STYLED_ITEM('',(#1276),#30);
#29=MANIFOLD_SOLID_BREP('Body1',#681);
#30=MANIFOLD_SOLID_BREP('Body4',#682);
#31=FACE_BOUND('',#91,.T.);
#32=FACE_BOUND('',#95,.T.);
#33=FACE_BOUND('',#120,.T.);
#34=FACE_BOUND('',#124,.T.);
#35=FACE_BOUND('',#129,.T.);
#36=PLANE('',#715);
#37=PLANE('',#735);
#38=PLANE('',#755);
#39=PLANE('',#757);
#40=PLANE('',#758);
#41=PLANE('',#760);
#42=PLANE('',#761);
#43=PLANE('',#763);
#44=PLANE('',#767);
#45=PLANE('',#768);
#46=PLANE('',#777);
#47=PLANE('',#778);
#48=PLANE('',#787);
#49=PLANE('',#789);
#50=PLANE('',#794);
#51=FACE_OUTER_BOUND('',#88,.T.);
#52=FACE_OUTER_BOUND('',#89,.T.);
#53=FACE_OUTER_BOUND('',#90,.T.);
#54=FACE_OUTER_BOUND('',#92,.T.);
#55=FACE_OUTER_BOUND('',#93,.T.);
#56=FACE_OUTER_BOUND('',#94,.T.);
#57=FACE_OUTER_BOUND('',#96,.T.);
#58=FACE_OUTER_BOUND('',#97,.T.);
#59=FACE_OUTER_BOUND('',#98,.T.);
#60=FACE_OUTER_BOUND('',#99,.T.);
#61=FACE_OUTER_BOUND('',#100,.T.);
#62=FACE_OUTER_BOUND('',#101,.T.);
#63=FACE_OUTER_BOUND('',#102,.T.);
#64=FACE_OUTER_BOUND('',#103,.T.);
#65=FACE_OUTER_BOUND('',#104,.T.);
#66=FACE_OUTER_BOUND('',#105,.T.);
#67=FACE_OUTER_BOUND('',#106,.T.);
#68=FACE_OUTER_BOUND('',#107,.T.);
#69=FACE_OUTER_BOUND('',#108,.T.);
#70=FACE_OUTER_BOUND('',#109,.T.);
#71=FACE_OUTER_BOUND('',#110,.T.);
#72=FACE_OUTER_BOUND('',#111,.T.);
#73=FACE_OUTER_BOUND('',#112,.T.);
#74=FACE_OUTER_BOUND('',#113,.T.);
#75=FACE_OUTER_BOUND('',#114,.T.);
#76=FACE_OUTER_BOUND('',#115,.T.);
#77=FACE_OUTER_BOUND('',#116,.T.);
#78=FACE_OUTER_BOUND('',#117,.T.);
#79=FACE_OUTER_BOUND('',#118,.T.);
#80=FACE_OUTER_BOUND('',#119,.T.);
#81=FACE_OUTER_BOUND('',#121,.T.);
#82=FACE_OUTER_BOUND('',#122,.T.);
#83=FACE_OUTER_BOUND('',#123,.T.);
#84=FACE_OUTER_BOUND('',#125,.T.);
#85=FACE_OUTER_BOUND('',#126,.T.);
#86=FACE_OUTER_BOUND('',#127,.T.);
#87=FACE_OUTER_BOUND('',#128,.T.);
#88=EDGE_LOOP('',(#432,#433,#434,#435));
#89=EDGE_LOOP('',(#436,#437,#438,#439));
#90=EDGE_LOOP('',(#440,#441,#442,#443,#444,#445,#446,#447,#448,#449,#450,
#451,#452,#453,#454,#455,#456,#457,#458,#459,#460,#461,#462,#463));
#91=EDGE_LOOP('',(#464));
#92=EDGE_LOOP('',(#465,#466,#467,#468));
#93=EDGE_LOOP('',(#469,#470,#471,#472));
#94=EDGE_LOOP('',(#473,#474,#475,#476,#477,#478,#479,#480,#481,#482,#483,
#484,#485,#486,#487,#488,#489,#490,#491,#492,#493,#494,#495,#496));
#95=EDGE_LOOP('',(#497));
#96=EDGE_LOOP('',(#498,#499,#500,#501));
#97=EDGE_LOOP('',(#502,#503,#504,#505));
#98=EDGE_LOOP('',(#506,#507,#508,#509));
#99=EDGE_LOOP('',(#510,#511,#512,#513));
#100=EDGE_LOOP('',(#514,#515,#516,#517));
#101=EDGE_LOOP('',(#518,#519,#520,#521));
#102=EDGE_LOOP('',(#522,#523,#524,#525));
#103=EDGE_LOOP('',(#526,#527,#528,#529));
#104=EDGE_LOOP('',(#530,#531,#532,#533));
#105=EDGE_LOOP('',(#534,#535,#536,#537));
#106=EDGE_LOOP('',(#538,#539,#540,#541));
#107=EDGE_LOOP('',(#542,#543,#544,#545));
#108=EDGE_LOOP('',(#546,#547,#548,#549));
#109=EDGE_LOOP('',(#550,#551,#552,#553));
#110=EDGE_LOOP('',(#554,#555,#556,#557));
#111=EDGE_LOOP('',(#558,#559,#560,#561));
#112=EDGE_LOOP('',(#562,#563,#564,#565));
#113=EDGE_LOOP('',(#566,#567,#568,#569));
#114=EDGE_LOOP('',(#570,#571,#572,#573));
#115=EDGE_LOOP('',(#574,#575,#576,#577));
#116=EDGE_LOOP('',(#578,#579,#580,#581));
#117=EDGE_LOOP('',(#582,#583,#584,#585,#586));
#118=EDGE_LOOP('',(#587));
#119=EDGE_LOOP('',(#588,#589,#590,#591));
#120=EDGE_LOOP('',(#592,#593));
#121=EDGE_LOOP('',(#594,#595,#596,#597));
#122=EDGE_LOOP('',(#598,#599,#600,#601));
#123=EDGE_LOOP('',(#602,#603));
#124=EDGE_LOOP('',(#604,#605));
#125=EDGE_LOOP('',(#606,#607,#608,#609));
#126=EDGE_LOOP('',(#610,#611,#612,#613));
#127=EDGE_LOOP('',(#614,#615,#616,#617,#618));
#128=EDGE_LOOP('',(#619));
#129=EDGE_LOOP('',(#620,#621));
#130=CIRCLE('',#710,40.6499999999999);
#131=CIRCLE('',#711,40.6499999999999);
#132=CIRCLE('',#713,50.);
#133=CIRCLE('',#714,50.);
#134=CIRCLE('',#716,50.);
#135=CIRCLE('',#717,3.175);
#136=CIRCLE('',#718,50.);
#137=CIRCLE('',#719,40.6499999999999);
#138=CIRCLE('',#720,50.);
#139=CIRCLE('',#721,3.175);
#140=CIRCLE('',#722,50.);
#141=CIRCLE('',#723,40.6499999999999);
#142=CIRCLE('',#724,50.);
#143=CIRCLE('',#725,3.175);
#144=CIRCLE('',#726,50.);
#145=CIRCLE('',#727,40.6499999999999);
#146=CIRCLE('',#728,50.);
#147=CIRCLE('',#729,3.175);
#148=CIRCLE('',#730,2.65);
#149=CIRCLE('',#732,40.6499999999999);
#150=CIRCLE('',#734,50.);
#151=CIRCLE('',#736,3.175);
#152=CIRCLE('',#737,50.);
#153=CIRCLE('',#738,40.6499999999999);
#154=CIRCLE('',#739,50.);
#155=CIRCLE('',#740,3.175);
#156=CIRCLE('',#741,50.);
#157=CIRCLE('',#742,40.6499999999999);
#158=CIRCLE('',#743,50.);
#159=CIRCLE('',#744,3.175);
#160=CIRCLE('',#745,50.);
#161=CIRCLE('',#746,3.175);
#162=CIRCLE('',#747,50.);
#163=CIRCLE('',#748,2.65);
#164=CIRCLE('',#774,3.);
#165=CIRCLE('',#775,3.);
#166=CIRCLE('',#776,3.);
#167=CIRCLE('',#779,53.);
#168=CIRCLE('',#780,53.);
#169=CIRCLE('',#781,39.925);
#170=CIRCLE('',#782,50.);
#171=CIRCLE('',#784,50.);
#172=CIRCLE('',#786,39.925);
#173=CIRCLE('',#788,2.65);
#174=CIRCLE('',#791,2.65);
#175=CIRCLE('',#793,53.);
#176=LINE('',#1031,#225);
#177=LINE('',#1035,#226);
#178=LINE('',#1041,#227);
#179=LINE('',#1047,#228);
#180=LINE('',#1051,#229);
#181=LINE('',#1059,#230);
#182=LINE('',#1063,#231);
#183=LINE('',#1071,#232);
#184=LINE('',#1075,#233);
#185=LINE('',#1083,#234);
#186=LINE('',#1086,#235);
#187=LINE('',#1091,#236);
#188=LINE('',#1094,#237);
#189=LINE('',#1098,#238);
#190=LINE('',#1101,#239);
#191=LINE('',#1105,#240);
#192=LINE('',#1113,#241);
#193=LINE('',#1117,#242);
#194=LINE('',#1125,#243);
#195=LINE('',#1128,#244);
#196=LINE('',#1132,#245);
#197=LINE('',#1136,#246);
#198=LINE('',#1141,#247);
#199=LINE('',#1142,#248);
#200=LINE('',#1144,#249);
#201=LINE('',#1146,#250);
#202=LINE('',#1147,#251);
#203=LINE('',#1149,#252);
#204=LINE('',#1151,#253);
#205=LINE('',#1153,#254);
#206=LINE('',#1155,#255);
#207=LINE('',#1157,#256);
#208=LINE('',#1160,#257);
#209=LINE('',#1162,#258);
#210=LINE('',#1164,#259);
#211=LINE('',#1166,#260);
#212=LINE('',#1168,#261);
#213=LINE('',#1171,#262);
#214=LINE('',#1174,#263);
#215=LINE('',#1175,#264);
#216=LINE('',#1179,#265);
#217=LINE('',#1187,#266);
#218=LINE('',#1204,#267);
#219=LINE('',#1205,#268);
#220=LINE('',#1212,#269);
#221=LINE('',#1216,#270);
#222=LINE('',#1217,#271);
#223=LINE('',#1218,#272);
#224=LINE('',#1223,#273);
#225=VECTOR('',#804,10.);
#226=VECTOR('',#807,10.);
#227=VECTOR('',#814,10.);
#228=VECTOR('',#821,10.);
#229=VECTOR('',#824,10.);
#230=VECTOR('',#831,10.);
#231=VECTOR('',#834,10.);
#232=VECTOR('',#841,10.);
#233=VECTOR('',#844,10.);
#234=VECTOR('',#851,10.);
#235=VECTOR('',#854,10.);
#236=VECTOR('',#859,10.);
#237=VECTOR('',#862,10.);
#238=VECTOR('',#867,10.);
#239=VECTOR('',#870,10.);
#240=VECTOR('',#873,10.);
#241=VECTOR('',#880,10.);
#242=VECTOR('',#883,10.);
#243=VECTOR('',#890,10.);
#244=VECTOR('',#893,10.);
#245=VECTOR('',#896,10.);
#246=VECTOR('',#899,10.);
#247=VECTOR('',#906,10.);
#248=VECTOR('',#907,10.);
#249=VECTOR('',#910,10.);
#250=VECTOR('',#913,10.);
#251=VECTOR('',#914,10.);
#252=VECTOR('',#917,10.);
#253=VECTOR('',#920,10.);
#254=VECTOR('',#923,10.);
#255=VECTOR('',#926,10.);
#256=VECTOR('',#929,10.);
#257=VECTOR('',#934,10.);
#258=VECTOR('',#937,10.);
#259=VECTOR('',#940,10.);
#260=VECTOR('',#943,10.);
#261=VECTOR('',#946,10.);
#262=VECTOR('',#951,10.);
#263=VECTOR('',#956,10.);
#264=VECTOR('',#957,10.);
#265=VECTOR('',#964,2.65);
#266=VECTOR('',#975,3.);
#267=VECTOR('',#996,10.);
#268=VECTOR('',#997,10.);
#269=VECTOR('',#1006,10.);
#270=VECTOR('',#1009,10.);
#271=VECTOR('',#1010,10.);
#272=VECTOR('',#1011,10.);
#273=VECTOR('',#1018,53.);
#274=VERTEX_POINT('',#1029);
#275=VERTEX_POINT('',#1030);
#276=VERTEX_POINT('',#1032);
#277=VERTEX_POINT('',#1034);
#278=VERTEX_POINT('',#1038);
#279=VERTEX_POINT('',#1040);
#280=VERTEX_POINT('',#1044);
#281=VERTEX_POINT('',#1046);
#282=VERTEX_POINT('',#1048);
#283=VERTEX_POINT('',#1050);
#284=VERTEX_POINT('',#1052);
#285=VERTEX_POINT('',#1054);
#286=VERTEX_POINT('',#1056);
#287=VERTEX_POINT('',#1058);
#288=VERTEX_POINT('',#1060);
#289=VERTEX_POINT('',#1062);
#290=VERTEX_POINT('',#1064);
#291=VERTEX_POINT('',#1066);
#292=VERTEX_POINT('',#1068);
#293=VERTEX_POINT('',#1070);
#294=VERTEX_POINT('',#1072);
#295=VERTEX_POINT('',#1074);
#296=VERTEX_POINT('',#1076);
#297=VERTEX_POINT('',#1078);
#298=VERTEX_POINT('',#1080);
#299=VERTEX_POINT('',#1082);
#300=VERTEX_POINT('',#1084);
#301=VERTEX_POINT('',#1087);
#302=VERTEX_POINT('',#1090);
#303=VERTEX_POINT('',#1092);
#304=VERTEX_POINT('',#1096);
#305=VERTEX_POINT('',#1100);
#306=VERTEX_POINT('',#1102);
#307=VERTEX_POINT('',#1104);
#308=VERTEX_POINT('',#1106);
#309=VERTEX_POINT('',#1108);
#310=VERTEX_POINT('',#1110);
#311=VERTEX_POINT('',#1112);
#312=VERTEX_POINT('',#1114);
#313=VERTEX_POINT('',#1116);
#314=VERTEX_POINT('',#1118);
#315=VERTEX_POINT('',#1120);
#316=VERTEX_POINT('',#1122);
#317=VERTEX_POINT('',#1124);
#318=VERTEX_POINT('',#1126);
#319=VERTEX_POINT('',#1129);
#320=VERTEX_POINT('',#1131);
#321=VERTEX_POINT('',#1133);
#322=VERTEX_POINT('',#1135);
#323=VERTEX_POINT('',#1138);
#324=VERTEX_POINT('',#1184);
#325=VERTEX_POINT('',#1186);
#326=VERTEX_POINT('',#1188);
#327=VERTEX_POINT('',#1193);
#328=VERTEX_POINT('',#1196);
#329=VERTEX_POINT('',#1197);
#330=VERTEX_POINT('',#1201);
#331=VERTEX_POINT('',#1202);
#332=VERTEX_POINT('',#1209);
#333=VERTEX_POINT('',#1210);
#334=VERTEX_POINT('',#1214);
#335=VERTEX_POINT('',#1215);
#336=VERTEX_POINT('',#1222);
#337=EDGE_CURVE('',#274,#275,#176,.T.);
#338=EDGE_CURVE('',#275,#276,#130,.T.);
#339=EDGE_CURVE('',#276,#277,#177,.T.);
#340=EDGE_CURVE('',#277,#274,#131,.T.);
#341=EDGE_CURVE('',#278,#274,#132,.T.);
#342=EDGE_CURVE('',#278,#279,#178,.T.);
#343=EDGE_CURVE('',#279,#275,#133,.T.);
#344=EDGE_CURVE('',#277,#280,#134,.T.);
#345=EDGE_CURVE('',#280,#281,#179,.T.);
#346=EDGE_CURVE('',#281,#282,#135,.T.);
#347=EDGE_CURVE('',#282,#283,#180,.T.);
#348=EDGE_CURVE('',#283,#284,#136,.T.);
#349=EDGE_CURVE('',#285,#284,#137,.T.);
#350=EDGE_CURVE('',#285,#286,#138,.T.);
#351=EDGE_CURVE('',#286,#287,#181,.T.);
#352=EDGE_CURVE('',#287,#288,#139,.T.);
#353=EDGE_CURVE('',#288,#289,#182,.T.);
#354=EDGE_CURVE('',#289,#290,#140,.T.);
#355=EDGE_CURVE('',#291,#290,#141,.T.);
#356=EDGE_CURVE('',#291,#292,#142,.T.);
#357=EDGE_CURVE('',#292,#293,#183,.T.);
#358=EDGE_CURVE('',#293,#294,#143,.T.);
#359=EDGE_CURVE('',#294,#295,#184,.T.);
#360=EDGE_CURVE('',#295,#296,#144,.T.);
#361=EDGE_CURVE('',#296,#297,#145,.T.);
#362=EDGE_CURVE('',#297,#298,#146,.T.);
#363=EDGE_CURVE('',#298,#299,#185,.T.);
#364=EDGE_CURVE('',#299,#300,#147,.T.);
#365=EDGE_CURVE('',#300,#278,#186,.T.);
#366=EDGE_CURVE('',#301,#301,#148,.T.);
#367=EDGE_CURVE('',#284,#302,#187,.T.);
#368=EDGE_CURVE('',#302,#303,#149,.T.);
#369=EDGE_CURVE('',#303,#285,#188,.T.);
#370=EDGE_CURVE('',#303,#304,#150,.T.);
#371=EDGE_CURVE('',#304,#286,#189,.T.);
#372=EDGE_CURVE('',#279,#305,#190,.T.);
#373=EDGE_CURVE('',#305,#306,#151,.T.);
#374=EDGE_CURVE('',#306,#307,#191,.T.);
#375=EDGE_CURVE('',#308,#307,#152,.T.);
#376=EDGE_CURVE('',#308,#309,#153,.T.);
#377=EDGE_CURVE('',#310,#309,#154,.T.);
#378=EDGE_CURVE('',#310,#311,#192,.T.);
#379=EDGE_CURVE('',#311,#312,#155,.T.);
#380=EDGE_CURVE('',#312,#313,#193,.T.);
#381=EDGE_CURVE('',#314,#313,#156,.T.);
#382=EDGE_CURVE('',#315,#314,#157,.T.);
#383=EDGE_CURVE('',#316,#315,#158,.T.);
#384=EDGE_CURVE('',#316,#317,#194,.T.);
#385=EDGE_CURVE('',#317,#318,#159,.T.);
#386=EDGE_CURVE('',#318,#304,#195,.T.);
#387=EDGE_CURVE('',#319,#302,#160,.T.);
#388=EDGE_CURVE('',#319,#320,#196,.T.);
#389=EDGE_CURVE('',#320,#321,#161,.T.);
#390=EDGE_CURVE('',#321,#322,#197,.T.);
#391=EDGE_CURVE('',#276,#322,#162,.T.);
#392=EDGE_CURVE('',#323,#323,#163,.T.);
#393=EDGE_CURVE('',#290,#315,#198,.T.);
#394=EDGE_CURVE('',#314,#291,#199,.T.);
#395=EDGE_CURVE('',#289,#316,#200,.T.);
#396=EDGE_CURVE('',#309,#296,#201,.T.);
#397=EDGE_CURVE('',#295,#310,#202,.T.);
#398=EDGE_CURVE('',#297,#308,#203,.T.);
#399=EDGE_CURVE('',#307,#298,#204,.T.);
#400=EDGE_CURVE('',#283,#319,#205,.T.);
#401=EDGE_CURVE('',#288,#317,#206,.T.);
#402=EDGE_CURVE('',#287,#318,#207,.T.);
#403=EDGE_CURVE('',#294,#311,#208,.T.);
#404=EDGE_CURVE('',#293,#312,#209,.T.);
#405=EDGE_CURVE('',#313,#292,#210,.T.);
#406=EDGE_CURVE('',#300,#305,#211,.T.);
#407=EDGE_CURVE('',#299,#306,#212,.T.);
#408=EDGE_CURVE('',#322,#280,#213,.T.);
#409=EDGE_CURVE('',#282,#320,#214,.T.);
#410=EDGE_CURVE('',#281,#321,#215,.T.);
#411=EDGE_CURVE('',#301,#323,#216,.T.);
#412=EDGE_CURVE('',#324,#324,#164,.T.);
#413=EDGE_CURVE('',#324,#325,#217,.T.);
#414=EDGE_CURVE('',#326,#325,#165,.T.);
#415=EDGE_CURVE('',#325,#326,#166,.T.);
#416=EDGE_CURVE('',#326,#327,#167,.T.);
#417=EDGE_CURVE('',#327,#326,#168,.T.);
#418=EDGE_CURVE('',#328,#329,#169,.T.);
#419=EDGE_CURVE('',#328,#329,#170,.T.);
#420=EDGE_CURVE('',#330,#331,#171,.T.);
#421=EDGE_CURVE('',#328,#330,#218,.T.);
#422=EDGE_CURVE('',#331,#329,#219,.T.);
#423=EDGE_CURVE('',#331,#330,#172,.T.);
#424=EDGE_CURVE('',#332,#333,#173,.T.);
#425=EDGE_CURVE('',#333,#332,#220,.T.);
#426=EDGE_CURVE('',#334,#335,#221,.T.);
#427=EDGE_CURVE('',#335,#332,#222,.T.);
#428=EDGE_CURVE('',#334,#333,#223,.T.);
#429=EDGE_CURVE('',#335,#334,#174,.T.);
#430=EDGE_CURVE('',#327,#336,#224,.T.);
#431=EDGE_CURVE('',#336,#336,#175,.T.);
#432=ORIENTED_EDGE('',*,*,#337,.T.);
#433=ORIENTED_EDGE('',*,*,#338,.T.);
#434=ORIENTED_EDGE('',*,*,#339,.T.);
#435=ORIENTED_EDGE('',*,*,#340,.T.);
#436=ORIENTED_EDGE('',*,*,#337,.F.);
#437=ORIENTED_EDGE('',*,*,#341,.F.);
#438=ORIENTED_EDGE('',*,*,#342,.T.);
#439=ORIENTED_EDGE('',*,*,#343,.T.);
#440=ORIENTED_EDGE('',*,*,#340,.F.);
#441=ORIENTED_EDGE('',*,*,#344,.T.);
#442=ORIENTED_EDGE('',*,*,#345,.T.);
#443=ORIENTED_EDGE('',*,*,#346,.T.);
#444=ORIENTED_EDGE('',*,*,#347,.T.);
#445=ORIENTED_EDGE('',*,*,#348,.T.);
#446=ORIENTED_EDGE('',*,*,#349,.F.);
#447=ORIENTED_EDGE('',*,*,#350,.T.);
#448=ORIENTED_EDGE('',*,*,#351,.T.);
#449=ORIENTED_EDGE('',*,*,#352,.T.);
#450=ORIENTED_EDGE('',*,*,#353,.T.);
#451=ORIENTED_EDGE('',*,*,#354,.T.);
#452=ORIENTED_EDGE('',*,*,#355,.F.);
#453=ORIENTED_EDGE('',*,*,#356,.T.);
#454=ORIENTED_EDGE('',*,*,#357,.T.);
#455=ORIENTED_EDGE('',*,*,#358,.T.);
#456=ORIENTED_EDGE('',*,*,#359,.T.);
#457=ORIENTED_EDGE('',*,*,#360,.T.);
#458=ORIENTED_EDGE('',*,*,#361,.T.);
#459=ORIENTED_EDGE('',*,*,#362,.T.);
#460=ORIENTED_EDGE('',*,*,#363,.T.);
#461=ORIENTED_EDGE('',*,*,#364,.T.);
#462=ORIENTED_EDGE('',*,*,#365,.T.);
#463=ORIENTED_EDGE('',*,*,#341,.T.);
#464=ORIENTED_EDGE('',*,*,#366,.T.);
#465=ORIENTED_EDGE('',*,*,#367,.T.);
#466=ORIENTED_EDGE('',*,*,#368,.T.);
#467=ORIENTED_EDGE('',*,*,#369,.T.);
#468=ORIENTED_EDGE('',*,*,#349,.T.);
#469=ORIENTED_EDGE('',*,*,#369,.F.);
#470=ORIENTED_EDGE('',*,*,#370,.T.);
#471=ORIENTED_EDGE('',*,*,#371,.T.);
#472=ORIENTED_EDGE('',*,*,#350,.F.);
#473=ORIENTED_EDGE('',*,*,#338,.F.);
#474=ORIENTED_EDGE('',*,*,#343,.F.);
#475=ORIENTED_EDGE('',*,*,#372,.T.);
#476=ORIENTED_EDGE('',*,*,#373,.T.);
#477=ORIENTED_EDGE('',*,*,#374,.T.);
#478=ORIENTED_EDGE('',*,*,#375,.F.);
#479=ORIENTED_EDGE('',*,*,#376,.T.);
#480=ORIENTED_EDGE('',*,*,#377,.F.);
#481=ORIENTED_EDGE('',*,*,#378,.T.);
#482=ORIENTED_EDGE('',*,*,#379,.T.);
#483=ORIENTED_EDGE('',*,*,#380,.T.);
#484=ORIENTED_EDGE('',*,*,#381,.F.);
#485=ORIENTED_EDGE('',*,*,#382,.F.);
#486=ORIENTED_EDGE('',*,*,#383,.F.);
#487=ORIENTED_EDGE('',*,*,#384,.T.);
#488=ORIENTED_EDGE('',*,*,#385,.T.);
#489=ORIENTED_EDGE('',*,*,#386,.T.);
#490=ORIENTED_EDGE('',*,*,#370,.F.);
#491=ORIENTED_EDGE('',*,*,#368,.F.);
#492=ORIENTED_EDGE('',*,*,#387,.F.);
#493=ORIENTED_EDGE('',*,*,#388,.T.);
#494=ORIENTED_EDGE('',*,*,#389,.T.);
#495=ORIENTED_EDGE('',*,*,#390,.T.);
#496=ORIENTED_EDGE('',*,*,#391,.F.);
#497=ORIENTED_EDGE('',*,*,#392,.T.);
#498=ORIENTED_EDGE('',*,*,#393,.T.);
#499=ORIENTED_EDGE('',*,*,#382,.T.);
#500=ORIENTED_EDGE('',*,*,#394,.T.);
#501=ORIENTED_EDGE('',*,*,#355,.T.);
#502=ORIENTED_EDGE('',*,*,#393,.F.);
#503=ORIENTED_EDGE('',*,*,#354,.F.);
#504=ORIENTED_EDGE('',*,*,#395,.T.);
#505=ORIENTED_EDGE('',*,*,#383,.T.);
#506=ORIENTED_EDGE('',*,*,#396,.T.);
#507=ORIENTED_EDGE('',*,*,#360,.F.);
#508=ORIENTED_EDGE('',*,*,#397,.T.);
#509=ORIENTED_EDGE('',*,*,#377,.T.);
#510=ORIENTED_EDGE('',*,*,#396,.F.);
#511=ORIENTED_EDGE('',*,*,#376,.F.);
#512=ORIENTED_EDGE('',*,*,#398,.F.);
#513=ORIENTED_EDGE('',*,*,#361,.F.);
#514=ORIENTED_EDGE('',*,*,#398,.T.);
#515=ORIENTED_EDGE('',*,*,#375,.T.);
#516=ORIENTED_EDGE('',*,*,#399,.T.);
#517=ORIENTED_EDGE('',*,*,#362,.F.);
#518=ORIENTED_EDGE('',*,*,#367,.F.);
#519=ORIENTED_EDGE('',*,*,#348,.F.);
#520=ORIENTED_EDGE('',*,*,#400,.T.);
#521=ORIENTED_EDGE('',*,*,#387,.T.);
#522=ORIENTED_EDGE('',*,*,#395,.F.);
#523=ORIENTED_EDGE('',*,*,#353,.F.);
#524=ORIENTED_EDGE('',*,*,#401,.T.);
#525=ORIENTED_EDGE('',*,*,#384,.F.);
#526=ORIENTED_EDGE('',*,*,#385,.F.);
#527=ORIENTED_EDGE('',*,*,#401,.F.);
#528=ORIENTED_EDGE('',*,*,#352,.F.);
#529=ORIENTED_EDGE('',*,*,#402,.T.);
#530=ORIENTED_EDGE('',*,*,#371,.F.);
#531=ORIENTED_EDGE('',*,*,#386,.F.);
#532=ORIENTED_EDGE('',*,*,#402,.F.);
#533=ORIENTED_EDGE('',*,*,#351,.F.);
#534=ORIENTED_EDGE('',*,*,#397,.F.);
#535=ORIENTED_EDGE('',*,*,#359,.F.);
#536=ORIENTED_EDGE('',*,*,#403,.T.);
#537=ORIENTED_EDGE('',*,*,#378,.F.);
#538=ORIENTED_EDGE('',*,*,#379,.F.);
#539=ORIENTED_EDGE('',*,*,#403,.F.);
#540=ORIENTED_EDGE('',*,*,#358,.F.);
#541=ORIENTED_EDGE('',*,*,#404,.T.);
#542=ORIENTED_EDGE('',*,*,#405,.F.);
#543=ORIENTED_EDGE('',*,*,#380,.F.);
#544=ORIENTED_EDGE('',*,*,#404,.F.);
#545=ORIENTED_EDGE('',*,*,#357,.F.);
#546=ORIENTED_EDGE('',*,*,#342,.F.);
#547=ORIENTED_EDGE('',*,*,#365,.F.);
#548=ORIENTED_EDGE('',*,*,#406,.T.);
#549=ORIENTED_EDGE('',*,*,#372,.F.);
#550=ORIENTED_EDGE('',*,*,#373,.F.);
#551=ORIENTED_EDGE('',*,*,#406,.F.);
#552=ORIENTED_EDGE('',*,*,#364,.F.);
#553=ORIENTED_EDGE('',*,*,#407,.T.);
#554=ORIENTED_EDGE('',*,*,#399,.F.);
#555=ORIENTED_EDGE('',*,*,#374,.F.);
#556=ORIENTED_EDGE('',*,*,#407,.F.);
#557=ORIENTED_EDGE('',*,*,#363,.F.);
#558=ORIENTED_EDGE('',*,*,#339,.F.);
#559=ORIENTED_EDGE('',*,*,#391,.T.);
#560=ORIENTED_EDGE('',*,*,#408,.T.);
#561=ORIENTED_EDGE('',*,*,#344,.F.);
#562=ORIENTED_EDGE('',*,*,#394,.F.);
#563=ORIENTED_EDGE('',*,*,#381,.T.);
#564=ORIENTED_EDGE('',*,*,#405,.T.);
#565=ORIENTED_EDGE('',*,*,#356,.F.);
#566=ORIENTED_EDGE('',*,*,#389,.F.);
#567=ORIENTED_EDGE('',*,*,#409,.F.);
#568=ORIENTED_EDGE('',*,*,#346,.F.);
#569=ORIENTED_EDGE('',*,*,#410,.T.);
#570=ORIENTED_EDGE('',*,*,#390,.F.);
#571=ORIENTED_EDGE('',*,*,#410,.F.);
#572=ORIENTED_EDGE('',*,*,#345,.F.);
#573=ORIENTED_EDGE('',*,*,#408,.F.);
#574=ORIENTED_EDGE('',*,*,#388,.F.);
#575=ORIENTED_EDGE('',*,*,#400,.F.);
#576=ORIENTED_EDGE('',*,*,#347,.F.);
#577=ORIENTED_EDGE('',*,*,#409,.T.);
#578=ORIENTED_EDGE('',*,*,#366,.F.);
#579=ORIENTED_EDGE('',*,*,#411,.T.);
#580=ORIENTED_EDGE('',*,*,#392,.F.);
#581=ORIENTED_EDGE('',*,*,#411,.F.);
#582=ORIENTED_EDGE('',*,*,#412,.F.);
#583=ORIENTED_EDGE('',*,*,#413,.T.);
#584=ORIENTED_EDGE('',*,*,#414,.F.);
#585=ORIENTED_EDGE('',*,*,#415,.F.);
#586=ORIENTED_EDGE('',*,*,#413,.F.);
#587=ORIENTED_EDGE('',*,*,#412,.T.);
#588=ORIENTED_EDGE('',*,*,#416,.T.);
#589=ORIENTED_EDGE('',*,*,#417,.T.);
#590=ORIENTED_EDGE('',*,*,#414,.T.);
#591=ORIENTED_EDGE('',*,*,#415,.T.);
#592=ORIENTED_EDGE('',*,*,#418,.T.);
#593=ORIENTED_EDGE('',*,*,#419,.F.);
#594=ORIENTED_EDGE('',*,*,#420,.F.);
#595=ORIENTED_EDGE('',*,*,#421,.F.);
#596=ORIENTED_EDGE('',*,*,#419,.T.);
#597=ORIENTED_EDGE('',*,*,#422,.F.);
#598=ORIENTED_EDGE('',*,*,#422,.T.);
#599=ORIENTED_EDGE('',*,*,#418,.F.);
#600=ORIENTED_EDGE('',*,*,#421,.T.);
#601=ORIENTED_EDGE('',*,*,#423,.F.);
#602=ORIENTED_EDGE('',*,*,#420,.T.);
#603=ORIENTED_EDGE('',*,*,#423,.T.);
#604=ORIENTED_EDGE('',*,*,#424,.T.);
#605=ORIENTED_EDGE('',*,*,#425,.T.);
#606=ORIENTED_EDGE('',*,*,#426,.T.);
#607=ORIENTED_EDGE('',*,*,#427,.T.);
#608=ORIENTED_EDGE('',*,*,#425,.F.);
#609=ORIENTED_EDGE('',*,*,#428,.F.);
#610=ORIENTED_EDGE('',*,*,#429,.T.);
#611=ORIENTED_EDGE('',*,*,#428,.T.);
#612=ORIENTED_EDGE('',*,*,#424,.F.);
#613=ORIENTED_EDGE('',*,*,#427,.F.);
#614=ORIENTED_EDGE('',*,*,#416,.F.);
#615=ORIENTED_EDGE('',*,*,#417,.F.);
#616=ORIENTED_EDGE('',*,*,#430,.T.);
#617=ORIENTED_EDGE('',*,*,#431,.T.);
#618=ORIENTED_EDGE('',*,*,#430,.F.);
#619=ORIENTED_EDGE('',*,*,#431,.F.);
#620=ORIENTED_EDGE('',*,*,#429,.F.);
#621=ORIENTED_EDGE('',*,*,#426,.F.);
#622=CYLINDRICAL_SURFACE('',#709,40.6499999999999);
#623=CYLINDRICAL_SURFACE('',#712,50.);
#624=CYLINDRICAL_SURFACE('',#731,40.6499999999999);
#625=CYLINDRICAL_SURFACE('',#733,50.);
#626=CYLINDRICAL_SURFACE('',#749,40.6499999999999);
#627=CYLINDRICAL_SURFACE('',#750,50.);
#628=CYLINDRICAL_SURFACE('',#751,50.);
#629=CYLINDRICAL_SURFACE('',#752,40.6499999999999);
#630=CYLINDRICAL_SURFACE('',#753,50.);
#631=CYLINDRICAL_SURFACE('',#754,50.);
#632=CYLINDRICAL_SURFACE('',#756,3.175);
#633=CYLINDRICAL_SURFACE('',#759,3.175);
#634=CYLINDRICAL_SURFACE('',#762,3.175);
#635=CYLINDRICAL_SURFACE('',#764,50.);
#636=CYLINDRICAL_SURFACE('',#765,50.);
#637=CYLINDRICAL_SURFACE('',#766,3.175);
#638=CYLINDRICAL_SURFACE('',#769,2.65);
#639=CYLINDRICAL_SURFACE('',#773,3.);
#640=CYLINDRICAL_SURFACE('',#783,50.);
#641=CYLINDRICAL_SURFACE('',#785,39.925);
#642=CYLINDRICAL_SURFACE('',#790,2.65);
#643=CYLINDRICAL_SURFACE('',#792,53.);
#644=ADVANCED_FACE('',(#51),#622,.F.);
#645=ADVANCED_FACE('',(#52),#623,.T.);
#646=ADVANCED_FACE('',(#53,#31),#36,.T.);
#647=ADVANCED_FACE('',(#54),#624,.F.);
#648=ADVANCED_FACE('',(#55),#625,.T.);
#649=ADVANCED_FACE('',(#56,#32),#37,.F.);
#650=ADVANCED_FACE('',(#57),#626,.F.);
#651=ADVANCED_FACE('',(#58),#627,.T.);
#652=ADVANCED_FACE('',(#59),#628,.T.);
#653=ADVANCED_FACE('',(#60),#629,.F.);
#654=ADVANCED_FACE('',(#61),#630,.T.);
#655=ADVANCED_FACE('',(#62),#631,.T.);
#656=ADVANCED_FACE('',(#63),#38,.F.);
#657=ADVANCED_FACE('',(#64),#632,.F.);
#658=ADVANCED_FACE('',(#65),#39,.F.);
#659=ADVANCED_FACE('',(#66),#40,.F.);
#660=ADVANCED_FACE('',(#67),#633,.F.);
#661=ADVANCED_FACE('',(#68),#41,.F.);
#662=ADVANCED_FACE('',(#69),#42,.F.);
#663=ADVANCED_FACE('',(#70),#634,.F.);
#664=ADVANCED_FACE('',(#71),#43,.F.);
#665=ADVANCED_FACE('',(#72),#635,.T.);
#666=ADVANCED_FACE('',(#73),#636,.T.);
#667=ADVANCED_FACE('',(#74),#637,.F.);
#668=ADVANCED_FACE('',(#75),#44,.F.);
#669=ADVANCED_FACE('',(#76),#45,.F.);
#670=ADVANCED_FACE('',(#77),#638,.F.);
#671=ADVANCED_FACE('',(#78),#639,.T.);
#672=ADVANCED_FACE('',(#79),#46,.T.);
#673=ADVANCED_FACE('',(#80,#33),#47,.T.);
#674=ADVANCED_FACE('',(#81),#640,.F.);
#675=ADVANCED_FACE('',(#82),#641,.T.);
#676=ADVANCED_FACE('',(#83,#34),#48,.T.);
#677=ADVANCED_FACE('',(#84),#49,.T.);
#678=ADVANCED_FACE('',(#85),#642,.F.);
#679=ADVANCED_FACE('',(#86),#643,.T.);
#680=ADVANCED_FACE('',(#87,#35),#50,.F.);
#681=CLOSED_SHELL('',(#644,#645,#646,#647,#648,#649,#650,#651,#652,#653,
#654,#655,#656,#657,#658,#659,#660,#661,#662,#663,#664,#665,#666,#667,#668,
#669,#670));
#682=CLOSED_SHELL('',(#671,#672,#673,#674,#675,#676,#677,#678,#679,#680));
#683=DERIVED_UNIT_ELEMENT(#687,1.);
#684=DERIVED_UNIT_ELEMENT(#1238,-3.);
#685=DERIVED_UNIT_ELEMENT(#687,1.);
#686=DERIVED_UNIT_ELEMENT(#1238,-3.);
#687=(
MASS_UNIT()
NAMED_UNIT(*)
SI_UNIT(.KILO.,.GRAM.)
);
#688=DERIVED_UNIT((#683,#684));
#689=DERIVED_UNIT((#685,#686));
#690=MEASURE_REPRESENTATION_ITEM('density measure',
POSITIVE_RATIO_MEASURE(7850.),#688);
#691=MEASURE_REPRESENTATION_ITEM('density measure',
POSITIVE_RATIO_MEASURE(7850.),#689);
#692=PROPERTY_DEFINITION_REPRESENTATION(#702,#696);
#693=PROPERTY_DEFINITION_REPRESENTATION(#703,#697);
#694=PROPERTY_DEFINITION_REPRESENTATION(#704,#698);
#695=PROPERTY_DEFINITION_REPRESENTATION(#705,#699);
#696=REPRESENTATION('material name',(#700),#1234);
#697=REPRESENTATION('density',(#690),#1234);
#698=REPRESENTATION('material name',(#701),#1235);
#699=REPRESENTATION('density',(#691),#1235);
#700=DESCRIPTIVE_REPRESENTATION_ITEM('Steel','Steel');
#701=DESCRIPTIVE_REPRESENTATION_ITEM('Steel','Steel');
#702=PROPERTY_DEFINITION('material property','material name',#1259);
#703=PROPERTY_DEFINITION('material property','density of part',#1259);
#704=PROPERTY_DEFINITION('material property','material name',#1260);
#705=PROPERTY_DEFINITION('material property','density of part',#1260);
#706=AXIS2_PLACEMENT_3D('',#1025,#796,#797);
#707=AXIS2_PLACEMENT_3D('',#1026,#798,#799);
#708=AXIS2_PLACEMENT_3D('',#1027,#800,#801);
#709=AXIS2_PLACEMENT_3D('',#1028,#802,#803);
#710=AXIS2_PLACEMENT_3D('',#1033,#805,#806);
#711=AXIS2_PLACEMENT_3D('',#1036,#808,#809);
#712=AXIS2_PLACEMENT_3D('',#1037,#810,#811);
#713=AXIS2_PLACEMENT_3D('',#1039,#812,#813);
#714=AXIS2_PLACEMENT_3D('',#1042,#815,#816);
#715=AXIS2_PLACEMENT_3D('',#1043,#817,#818);
#716=AXIS2_PLACEMENT_3D('',#1045,#819,#820);
#717=AXIS2_PLACEMENT_3D('',#1049,#822,#823);
#718=AXIS2_PLACEMENT_3D('',#1053,#825,#826);
#719=AXIS2_PLACEMENT_3D('',#1055,#827,#828);
#720=AXIS2_PLACEMENT_3D('',#1057,#829,#830);
#721=AXIS2_PLACEMENT_3D('',#1061,#832,#833);
#722=AXIS2_PLACEMENT_3D('',#1065,#835,#836);
#723=AXIS2_PLACEMENT_3D('',#1067,#837,#838);
#724=AXIS2_PLACEMENT_3D('',#1069,#839,#840);
#725=AXIS2_PLACEMENT_3D('',#1073,#842,#843);
#726=AXIS2_PLACEMENT_3D('',#1077,#845,#846);
#727=AXIS2_PLACEMENT_3D('',#1079,#847,#848);
#728=AXIS2_PLACEMENT_3D('',#1081,#849,#850);
#729=AXIS2_PLACEMENT_3D('',#1085,#852,#853);
#730=AXIS2_PLACEMENT_3D('',#1088,#855,#856);
#731=AXIS2_PLACEMENT_3D('',#1089,#857,#858);
#732=AXIS2_PLACEMENT_3D('',#1093,#860,#861);
#733=AXIS2_PLACEMENT_3D('',#1095,#863,#864);
#734=AXIS2_PLACEMENT_3D('',#1097,#865,#866);
#735=AXIS2_PLACEMENT_3D('',#1099,#868,#869);
#736=AXIS2_PLACEMENT_3D('',#1103,#871,#872);
#737=AXIS2_PLACEMENT_3D('',#1107,#874,#875);
#738=AXIS2_PLACEMENT_3D('',#1109,#876,#877);
#739=AXIS2_PLACEMENT_3D('',#1111,#878,#879);
#740=AXIS2_PLACEMENT_3D('',#1115,#881,#882);
#741=AXIS2_PLACEMENT_3D('',#1119,#884,#885);
#742=AXIS2_PLACEMENT_3D('',#1121,#886,#887);
#743=AXIS2_PLACEMENT_3D('',#1123,#888,#889);
#744=AXIS2_PLACEMENT_3D('',#1127,#891,#892);
#745=AXIS2_PLACEMENT_3D('',#1130,#894,#895);
#746=AXIS2_PLACEMENT_3D('',#1134,#897,#898);
#747=AXIS2_PLACEMENT_3D('',#1137,#900,#901);
#748=AXIS2_PLACEMENT_3D('',#1139,#902,#903);
#749=AXIS2_PLACEMENT_3D('',#1140,#904,#905);
#750=AXIS2_PLACEMENT_3D('',#1143,#908,#909);
#751=AXIS2_PLACEMENT_3D('',#1145,#911,#912);
#752=AXIS2_PLACEMENT_3D('',#1148,#915,#916);
#753=AXIS2_PLACEMENT_3D('',#1150,#918,#919);
#754=AXIS2_PLACEMENT_3D('',#1152,#921,#922);
#755=AXIS2_PLACEMENT_3D('',#1154,#924,#925);
#756=AXIS2_PLACEMENT_3D('',#1156,#927,#928);
#757=AXIS2_PLACEMENT_3D('',#1158,#930,#931);
#758=AXIS2_PLACEMENT_3D('',#1159,#932,#933);
#759=AXIS2_PLACEMENT_3D('',#1161,#935,#936);
#760=AXIS2_PLACEMENT_3D('',#1163,#938,#939);
#761=AXIS2_PLACEMENT_3D('',#1165,#941,#942);
#762=AXIS2_PLACEMENT_3D('',#1167,#944,#945);
#763=AXIS2_PLACEMENT_3D('',#1169,#947,#948);
#764=AXIS2_PLACEMENT_3D('',#1170,#949,#950);
#765=AXIS2_PLACEMENT_3D('',#1172,#952,#953);
#766=AXIS2_PLACEMENT_3D('',#1173,#954,#955);
#767=AXIS2_PLACEMENT_3D('',#1176,#958,#959);
#768=AXIS2_PLACEMENT_3D('',#1177,#960,#961);
#769=AXIS2_PLACEMENT_3D('',#1178,#962,#963);
#770=AXIS2_PLACEMENT_3D('',#1180,#965,#966);
#771=AXIS2_PLACEMENT_3D('',#1181,#967,#968);
#772=AXIS2_PLACEMENT_3D('',#1182,#969,#970);
#773=AXIS2_PLACEMENT_3D('',#1183,#971,#972);
#774=AXIS2_PLACEMENT_3D('',#1185,#973,#974);
#775=AXIS2_PLACEMENT_3D('',#1189,#976,#977);
#776=AXIS2_PLACEMENT_3D('',#1190,#978,#979);
#777=AXIS2_PLACEMENT_3D('',#1191,#980,#981);
#778=AXIS2_PLACEMENT_3D('',#1192,#982,#983);
#779=AXIS2_PLACEMENT_3D('',#1194,#984,#985);
#780=AXIS2_PLACEMENT_3D('',#1195,#986,#987);
#781=AXIS2_PLACEMENT_3D('',#1198,#988,#989);
#782=AXIS2_PLACEMENT_3D('',#1199,#990,#991);
#783=AXIS2_PLACEMENT_3D('',#1200,#992,#993);
#784=AXIS2_PLACEMENT_3D('',#1203,#994,#995);
#785=AXIS2_PLACEMENT_3D('',#1206,#998,#999);
#786=AXIS2_PLACEMENT_3D('',#1207,#1000,#1001);
#787=AXIS2_PLACEMENT_3D('',#1208,#1002,#1003);
#788=AXIS2_PLACEMENT_3D('',#1211,#1004,#1005);
#789=AXIS2_PLACEMENT_3D('',#1213,#1007,#1008);
#790=AXIS2_PLACEMENT_3D('',#1219,#1012,#1013);
#791=AXIS2_PLACEMENT_3D('',#1220,#1014,#1015);
#792=AXIS2_PLACEMENT_3D('',#1221,#1016,#1017);
#793=AXIS2_PLACEMENT_3D('',#1224,#1019,#1020);
#794=AXIS2_PLACEMENT_3D('',#1225,#1021,#1022);
#795=AXIS2_PLACEMENT_3D('',#1226,#1023,#1024);
#796=DIRECTION('axis',(0.,0.,1.));
#797=DIRECTION('refdir',(1.,0.,0.));
#798=DIRECTION('axis',(0.,0.,1.));
#799=DIRECTION('refdir',(1.,0.,0.));
#800=DIRECTION('axis',(0.,0.,1.));
#801=DIRECTION('refdir',(1.,0.,0.));
#802=DIRECTION('center_axis',(0.,0.,-1.));
#803=DIRECTION('ref_axis',(0.907432589040078,-0.42019768722355,0.));
#804=DIRECTION('',(0.,0.,-1.));
#805=DIRECTION('center_axis',(0.,0.,-1.));
#806=DIRECTION('ref_axis',(0.907432589040078,-0.42019768722355,0.));
#807=DIRECTION('',(0.,0.,1.));
#808=DIRECTION('center_axis',(0.,0.,1.));
#809=DIRECTION('ref_axis',(0.907432589040078,-0.42019768722355,0.));
#810=DIRECTION('center_axis',(0.,0.,1.));
#811=DIRECTION('ref_axis',(0.707106781186547,-0.707106781186548,0.));
#812=DIRECTION('center_axis',(0.,0.,1.));
#813=DIRECTION('ref_axis',(0.707106781186547,-0.707106781186548,0.));
#814=DIRECTION('',(0.,0.,-1.));
#815=DIRECTION('center_axis',(0.,0.,1.));
#816=DIRECTION('ref_axis',(0.707106781186547,-0.707106781186548,0.));
#817=DIRECTION('center_axis',(0.,0.,1.));
#818=DIRECTION('ref_axis',(0.707106781186547,-0.707106781186548,0.));
#819=DIRECTION('center_axis',(0.,0.,1.));
#820=DIRECTION('ref_axis',(0.707106781186547,-0.707106781186548,0.));
#821=DIRECTION('',(-0.707106781186547,0.707106781186548,0.));
#822=DIRECTION('center_axis',(0.,0.,-1.));
#823=DIRECTION('ref_axis',(0.707106781186548,0.707106781186548,0.));
#824=DIRECTION('',(0.707106781186547,-0.707106781186548,0.));
#825=DIRECTION('center_axis',(0.,0.,1.));
#826=DIRECTION('ref_axis',(0.707106781186547,-0.707106781186548,0.));
#827=DIRECTION('center_axis',(0.,0.,1.));
#828=DIRECTION('ref_axis',(0.42019768722355,0.907432589040078,0.));
#829=DIRECTION('center_axis',(0.,0.,1.));
#830=DIRECTION('ref_axis',(0.707106781186547,-0.707106781186548,0.));
#831=DIRECTION('',(-0.707106781186547,-0.707106781186548,0.));
#832=DIRECTION('center_axis',(0.,0.,-1.));
#833=DIRECTION('ref_axis',(-0.707106781186548,0.707106781186548,0.));
#834=DIRECTION('',(0.707106781186547,0.707106781186548,0.));
#835=DIRECTION('center_axis',(0.,0.,1.));
#836=DIRECTION('ref_axis',(0.707106781186547,-0.707106781186548,0.));
#837=DIRECTION('center_axis',(0.,0.,1.));
#838=DIRECTION('ref_axis',(-0.907432589040078,0.42019768722355,0.));
#839=DIRECTION('center_axis',(0.,0.,1.));
#840=DIRECTION('ref_axis',(0.707106781186547,-0.707106781186548,0.));
#841=DIRECTION('',(0.707106781186548,-0.707106781186547,0.));
#842=DIRECTION('center_axis',(0.,0.,-1.));
#843=DIRECTION('ref_axis',(-0.707106781186548,-0.707106781186548,0.));
#844=DIRECTION('',(-0.707106781186548,0.707106781186547,0.));
#845=DIRECTION('center_axis',(0.,0.,1.));
#846=DIRECTION('ref_axis',(0.707106781186547,-0.707106781186548,0.));
#847=DIRECTION('center_axis',(0.,0.,-1.));
#848=DIRECTION('ref_axis',(-0.42019768722355,-0.907432589040078,0.));
#849=DIRECTION('center_axis',(0.,0.,1.));
#850=DIRECTION('ref_axis',(0.707106781186547,-0.707106781186548,0.));
#851=DIRECTION('',(0.707106781186548,0.707106781186547,0.));
#852=DIRECTION('center_axis',(0.,0.,-1.));
#853=DIRECTION('ref_axis',(0.707106781186548,-0.707106781186548,0.));
#854=DIRECTION('',(-0.707106781186548,-0.707106781186547,0.));
#855=DIRECTION('center_axis',(0.,0.,-1.));
#856=DIRECTION('ref_axis',(0.707106781186547,-0.707106781186548,0.));
#857=DIRECTION('center_axis',(0.,0.,-1.));
#858=DIRECTION('ref_axis',(0.42019768722355,0.907432589040078,0.));
#859=DIRECTION('',(0.,0.,-1.));
#860=DIRECTION('center_axis',(0.,0.,-1.));
#861=DIRECTION('ref_axis',(0.42019768722355,0.907432589040078,0.));
#862=DIRECTION('',(0.,0.,1.));
#863=DIRECTION('center_axis',(0.,0.,1.));
#864=DIRECTION('ref_axis',(0.707106781186547,-0.707106781186548,0.));
#865=DIRECTION('center_axis',(0.,0.,1.));
#866=DIRECTION('ref_axis',(0.707106781186547,-0.707106781186548,0.));
#867=DIRECTION('',(0.,0.,1.));
#868=DIRECTION('center_axis',(0.,0.,1.));
#869=DIRECTION('ref_axis',(0.707106781186547,-0.707106781186548,0.));
#870=DIRECTION('',(0.707106781186548,0.707106781186547,0.));
#871=DIRECTION('center_axis',(0.,0.,1.));
#872=DIRECTION('ref_axis',(0.707106781186548,-0.707106781186548,0.));
#873=DIRECTION('',(-0.707106781186548,-0.707106781186547,0.));
#874=DIRECTION('center_axis',(0.,0.,1.));
#875=DIRECTION('ref_axis',(0.707106781186547,-0.707106781186548,0.));
#876=DIRECTION('center_axis',(0.,0.,1.));
#877=DIRECTION('ref_axis',(-0.42019768722355,-0.907432589040078,0.));
#878=DIRECTION('center_axis',(0.,0.,1.));
#879=DIRECTION('ref_axis',(0.707106781186547,-0.707106781186548,0.));
#880=DIRECTION('',(0.707106781186548,-0.707106781186547,0.));
#881=DIRECTION('center_axis',(0.,0.,1.));
#882=DIRECTION('ref_axis',(-0.707106781186548,-0.707106781186548,0.));
#883=DIRECTION('',(-0.707106781186548,0.707106781186547,0.));
#884=DIRECTION('center_axis',(0.,0.,1.));
#885=DIRECTION('ref_axis',(0.707106781186547,-0.707106781186548,0.));
#886=DIRECTION('center_axis',(0.,0.,-1.));
#887=DIRECTION('ref_axis',(-0.907432589040078,0.42019768722355,0.));
#888=DIRECTION('center_axis',(0.,0.,1.));
#889=DIRECTION('ref_axis',(0.707106781186547,-0.707106781186548,0.));
#890=DIRECTION('',(-0.707106781186547,-0.707106781186548,0.));
#891=DIRECTION('center_axis',(0.,0.,1.));
#892=DIRECTION('ref_axis',(-0.707106781186548,0.707106781186548,0.));
#893=DIRECTION('',(0.707106781186547,0.707106781186548,0.));
#894=DIRECTION('center_axis',(0.,0.,1.));
#895=DIRECTION('ref_axis',(0.707106781186547,-0.707106781186548,0.));
#896=DIRECTION('',(-0.707106781186547,0.707106781186548,0.));
#897=DIRECTION('center_axis',(0.,0.,1.));
#898=DIRECTION('ref_axis',(0.707106781186548,0.707106781186548,0.));
#899=DIRECTION('',(0.707106781186547,-0.707106781186548,0.));
#900=DIRECTION('center_axis',(0.,0.,1.));
#901=DIRECTION('ref_axis',(0.707106781186547,-0.707106781186548,0.));
#902=DIRECTION('center_axis',(0.,0.,1.));
#903=DIRECTION('ref_axis',(0.707106781186547,-0.707106781186548,0.));
#904=DIRECTION('center_axis',(0.,0.,-1.));
#905=DIRECTION('ref_axis',(-0.907432589040078,0.42019768722355,0.));
#906=DIRECTION('',(0.,0.,-1.));
#907=DIRECTION('',(0.,0.,1.));
#908=DIRECTION('center_axis',(0.,0.,1.));
#909=DIRECTION('ref_axis',(0.707106781186547,-0.707106781186548,0.));
#910=DIRECTION('',(0.,0.,-1.));
#911=DIRECTION('center_axis',(0.,0.,1.));
#912=DIRECTION('ref_axis',(0.707106781186547,-0.707106781186548,0.));
#913=DIRECTION('',(0.,0.,1.));
#914=DIRECTION('',(0.,0.,-1.));
#915=DIRECTION('center_axis',(0.,0.,-1.));
#916=DIRECTION('ref_axis',(-0.42019768722355,-0.907432589040078,0.));
#917=DIRECTION('',(0.,0.,-1.));
#918=DIRECTION('center_axis',(0.,0.,1.));
#919=DIRECTION('ref_axis',(0.707106781186547,-0.707106781186548,0.));
#920=DIRECTION('',(0.,0.,1.));
#921=DIRECTION('center_axis',(0.,0.,1.));
#922=DIRECTION('ref_axis',(0.707106781186547,-0.707106781186548,0.));
#923=DIRECTION('',(0.,0.,-1.));
#924=DIRECTION('center_axis',(-0.707106781186548,0.707106781186547,0.));
#925=DIRECTION('ref_axis',(0.707106781186547,0.707106781186548,0.));
#926=DIRECTION('',(0.,0.,-1.));
#927=DIRECTION('center_axis',(0.,0.,-1.));
#928=DIRECTION('ref_axis',(-0.707106781186548,0.707106781186548,0.));
#929=DIRECTION('',(0.,0.,-1.));
#930=DIRECTION('center_axis',(0.707106781186548,-0.707106781186547,0.));
#931=DIRECTION('ref_axis',(-0.707106781186547,-0.707106781186548,0.));
#932=DIRECTION('center_axis',(-0.707106781186547,-0.707106781186548,0.));
#933=DIRECTION('ref_axis',(-0.707106781186548,0.707106781186547,0.));
#934=DIRECTION('',(0.,0.,-1.));
#935=DIRECTION('center_axis',(0.,0.,-1.));
#936=DIRECTION('ref_axis',(-0.707106781186548,-0.707106781186548,0.));
#937=DIRECTION('',(0.,0.,-1.));
#938=DIRECTION('center_axis',(0.707106781186547,0.707106781186548,0.));
#939=DIRECTION('ref_axis',(0.707106781186548,-0.707106781186547,0.));
#940=DIRECTION('',(0.,0.,1.));
#941=DIRECTION('center_axis',(0.707106781186547,-0.707106781186548,0.));
#942=DIRECTION('ref_axis',(-0.707106781186548,-0.707106781186547,0.));
#943=DIRECTION('',(0.,0.,-1.));
#944=DIRECTION('center_axis',(0.,0.,-1.));
#945=DIRECTION('ref_axis',(0.707106781186548,-0.707106781186548,0.));
#946=DIRECTION('',(0.,0.,-1.));
#947=DIRECTION('center_axis',(-0.707106781186547,0.707106781186548,0.));
#948=DIRECTION('ref_axis',(0.707106781186548,0.707106781186547,0.));
#949=DIRECTION('center_axis',(0.,0.,1.));
#950=DIRECTION('ref_axis',(0.707106781186547,-0.707106781186548,0.));
#951=DIRECTION('',(0.,0.,1.));
#952=DIRECTION('center_axis',(0.,0.,1.));
#953=DIRECTION('ref_axis',(0.707106781186547,-0.707106781186548,0.));
#954=DIRECTION('center_axis',(0.,0.,-1.));
#955=DIRECTION('ref_axis',(0.707106781186548,0.707106781186548,0.));
#956=DIRECTION('',(0.,0.,-1.));
#957=DIRECTION('',(0.,0.,-1.));
#958=DIRECTION('center_axis',(-0.707106781186548,-0.707106781186547,0.));
#959=DIRECTION('ref_axis',(-0.707106781186547,0.707106781186548,0.));
#960=DIRECTION('center_axis',(0.707106781186548,0.707106781186547,0.));
#961=DIRECTION('ref_axis',(0.707106781186547,-0.707106781186548,0.));
#962=DIRECTION('center_axis',(0.,0.,-1.));
#963=DIRECTION('ref_axis',(0.707106781186547,-0.707106781186548,0.));
#964=DIRECTION('',(0.,0.,-1.));
#965=DIRECTION('axis',(0.,0.,1.));
#966=DIRECTION('refdir',(1.,0.,0.));
#967=DIRECTION('',(3.29686456224997E-15,-4.41806650003726E-16,0.99999999999998));
#968=DIRECTION('',(1.,3.88578058618812E-16,-1.63757896132209E-15));
#969=DIRECTION('',(1.35416949214728E-35,1.01643953670516E-20,1.));
#970=DIRECTION('',(-0.996194698091746,-0.0871557427476494,8.85885427796151E-22));
#971=DIRECTION('center_axis',(0.,0.,1.));
#972=DIRECTION('ref_axis',(-1.,0.,0.));
#973=DIRECTION('center_axis',(0.,0.,1.));
#974=DIRECTION('ref_axis',(-1.,0.,0.));
#975=DIRECTION('',(0.,0.,-1.));
#976=DIRECTION('center_axis',(0.,0.,-1.));
#977=DIRECTION('ref_axis',(-1.,0.,0.));
#978=DIRECTION('center_axis',(0.,0.,-1.));
#979=DIRECTION('ref_axis',(-1.,0.,0.));
#980=DIRECTION('center_axis',(0.,0.,1.));
#981=DIRECTION('ref_axis',(-1.,0.,0.));
#982=DIRECTION('center_axis',(0.,0.,1.));
#983=DIRECTION('ref_axis',(1.,0.,0.));
#984=DIRECTION('center_axis',(0.,0.,1.));
#985=DIRECTION('ref_axis',(1.,0.,0.));
#986=DIRECTION('center_axis',(0.,0.,1.));
#987=DIRECTION('ref_axis',(1.,0.,0.));
#988=DIRECTION('center_axis',(0.,0.,-1.));
#989=DIRECTION('ref_axis',(-1.,0.,0.));
#990=DIRECTION('center_axis',(0.,0.,-1.));
#991=DIRECTION('ref_axis',(-1.,0.,0.));
#992=DIRECTION('center_axis',(0.,0.,-1.));
#993=DIRECTION('ref_axis',(-1.,0.,0.));
#994=DIRECTION('center_axis',(0.,0.,-1.));
#995=DIRECTION('ref_axis',(-1.,0.,0.));
#996=DIRECTION('',(0.,0.,1.));
#997=DIRECTION('',(0.,0.,-1.));
#998=DIRECTION('center_axis',(0.,0.,1.));
#999=DIRECTION('ref_axis',(-5.0532154980743E-16,-1.,0.));
#1000=DIRECTION('center_axis',(0.,0.,1.));
#1001=DIRECTION('ref_axis',(-1.,0.,0.));
#1002=DIRECTION('center_axis',(0.,0.,1.));
#1003=DIRECTION('ref_axis',(-1.,0.,0.));
#1004=DIRECTION('center_axis',(0.,0.,-1.));
#1005=DIRECTION('ref_axis',(-0.656050515121272,0.754716981132076,0.));
#1006=DIRECTION('',(1.,-1.59649323911729E-16,0.));
#1007=DIRECTION('center_axis',(0.,-1.,0.));
#1008=DIRECTION('ref_axis',(1.,0.,0.));
#1009=DIRECTION('',(1.,0.,0.));
#1010=DIRECTION('',(0.,0.,1.));
#1011=DIRECTION('',(0.,0.,1.));
#1012=DIRECTION('center_axis',(0.,0.,1.));
#1013=DIRECTION('ref_axis',(-1.04738021191052E-16,-1.,0.));
#1014=DIRECTION('center_axis',(0.,0.,-1.));
#1015=DIRECTION('ref_axis',(-0.656050515121272,0.754716981132076,0.));
#1016=DIRECTION('center_axis',(0.,0.,1.));
#1017=DIRECTION('ref_axis',(1.,0.,0.));
#1018=DIRECTION('',(0.,0.,-1.));
#1019=DIRECTION('center_axis',(0.,0.,1.));
#1020=DIRECTION('ref_axis',(1.,0.,0.));
#1021=DIRECTION('center_axis',(0.,0.,1.));
#1022=DIRECTION('ref_axis',(1.,0.,0.));
#1023=DIRECTION('',(0.,0.,1.));
#1024=DIRECTION('',(1.,0.,0.));
#1025=CARTESIAN_POINT('',(0.,0.,0.));
#1026=CARTESIAN_POINT('',(0.,0.,0.));
#1027=CARTESIAN_POINT('',(0.,0.,0.));
#1028=CARTESIAN_POINT('Origin',(45.0505914487482,-71.8640738686214,11.));
#1029=CARTESIAN_POINT('',(17.6374167316048,-41.8484054281658,8.));
#1030=CARTESIAN_POINT('',(17.6374167316048,-41.8484054281658,0.));
#1031=CARTESIAN_POINT('',(17.6374167316048,-41.8484054281658,11.));
#1032=CARTESIAN_POINT('',(72.4214776715677,-41.8098381042993,0.));
#1033=CARTESIAN_POINT('Origin',(45.0505914487482,-71.8640738686214,0.));
#1034=CARTESIAN_POINT('',(72.4214776715677,-41.8098381042993,8.));
#1035=CARTESIAN_POINT('',(72.4214776715677,-41.8098381042993,11.));
#1036=CARTESIAN_POINT('Origin',(45.0505914487482,-71.8640738686214,8.));
#1037=CARTESIAN_POINT('Origin',(45.,0.,0.));
#1038=CARTESIAN_POINT('',(11.9610777546209,-37.5290503059136,8.));
#1039=CARTESIAN_POINT('Origin',(45.,0.,8.));
#1040=CARTESIAN_POINT('',(11.9610777546209,-37.5290503059136,0.));
#1041=CARTESIAN_POINT('',(11.9610777546209,-37.5290503059136,0.));
#1042=CARTESIAN_POINT('Origin',(45.,0.,0.));
#1043=CARTESIAN_POINT('Origin',(45.,0.,8.));
#1044=CARTESIAN_POINT('',(78.0389222453791,-37.5290503059136,8.));
#1045=CARTESIAN_POINT('Origin',(45.,0.,8.));
#1046=CARTESIAN_POINT('',(57.3996123828529,-16.8897404433875,8.));
#1047=CARTESIAN_POINT('',(60.4326054993964,-19.922733559931,8.));
#1048=CARTESIAN_POINT('',(61.8897404433875,-12.3996123828529,8.));
#1049=CARTESIAN_POINT('Origin',(59.6446764131202,-14.6446764131202,8.));
#1050=CARTESIAN_POINT('',(82.5290503059136,-33.0389222453791,8.));
#1051=CARTESIAN_POINT('',(54.5674022368274,-5.07727417629283,8.));
#1052=CARTESIAN_POINT('',(86.8484054281658,-27.3625832683952,8.));
#1053=CARTESIAN_POINT('Origin',(45.,0.,8.));
#1054=CARTESIAN_POINT('',(86.8098381042993,27.4214776715677,8.));
#1055=CARTESIAN_POINT('Origin',(116.864073868621,0.0505914487481884,8.));
#1056=CARTESIAN_POINT('',(82.5290503059136,33.0389222453791,8.));
#1057=CARTESIAN_POINT('Origin',(45.,0.,8.));
#1058=CARTESIAN_POINT('',(61.8897404433875,12.3996123828529,8.));
#1059=CARTESIAN_POINT('',(64.922733559931,15.4326054993964,8.));
#1060=CARTESIAN_POINT('',(57.3996123828529,16.8897404433875,8.));
#1061=CARTESIAN_POINT('Origin',(59.6446764131202,14.6446764131202,8.));
#1062=CARTESIAN_POINT('',(78.0389222453791,37.5290503059136,8.));
#1063=CARTESIAN_POINT('',(50.0772741762928,9.5674022368274,8.));
#1064=CARTESIAN_POINT('',(72.3625832683952,41.8484054281658,8.));
#1065=CARTESIAN_POINT('Origin',(45.,0.,8.));
#1066=CARTESIAN_POINT('',(17.5785223284323,41.8098381042993,8.));
#1067=CARTESIAN_POINT('Origin',(44.9494085512518,71.8640738686214,8.));
#1068=CARTESIAN_POINT('',(11.9610777546209,37.5290503059136,8.));
#1069=CARTESIAN_POINT('Origin',(45.,0.,8.));
#1070=CARTESIAN_POINT('',(32.6003876171471,16.8897404433875,8.));
#1071=CARTESIAN_POINT('',(29.5673945006036,19.922733559931,8.));
#1072=CARTESIAN_POINT('',(28.1102595566125,12.3996123828529,8.));
#1073=CARTESIAN_POINT('Origin',(30.3553235868798,14.6446764131202,8.));
#1074=CARTESIAN_POINT('',(7.47094969408636,33.0389222453791,8.));
#1075=CARTESIAN_POINT('',(35.4325977631726,5.07727417629283,8.));
#1076=CARTESIAN_POINT('',(3.15159457183416,27.3625832683952,8.));
#1077=CARTESIAN_POINT('Origin',(45.,0.,8.));
#1078=CARTESIAN_POINT('',(3.19016189570071,-27.4214776715677,8.));
#1079=CARTESIAN_POINT('Origin',(-26.8640738686214,-0.0505914487481796,8.));
#1080=CARTESIAN_POINT('',(7.47094969408636,-33.0389222453791,8.));
#1081=CARTESIAN_POINT('Origin',(45.,0.,8.));
#1082=CARTESIAN_POINT('',(28.1102595566125,-12.3996123828529,8.));
#1083=CARTESIAN_POINT('',(25.077266440069,-15.4326054993964,8.));
#1084=CARTESIAN_POINT('',(32.6003876171471,-16.8897404433875,8.));
#1085=CARTESIAN_POINT('Origin',(30.3553235868798,-14.6446764131202,8.));
#1086=CARTESIAN_POINT('',(39.9227258237072,-9.5674022368274,8.));
#1087=CARTESIAN_POINT('',(43.1261670298557,1.87383297014435,8.));
#1088=CARTESIAN_POINT('Origin',(45.,0.,8.));
#1089=CARTESIAN_POINT('Origin',(116.864073868621,0.0505914487481884,11.));
#1090=CARTESIAN_POINT('',(86.8484054281658,-27.3625832683952,0.));
#1091=CARTESIAN_POINT('',(86.8484054281658,-27.3625832683952,11.));
#1092=CARTESIAN_POINT('',(86.8098381042993,27.4214776715677,0.));
#1093=CARTESIAN_POINT('Origin',(116.864073868621,0.0505914487481884,0.));
#1094=CARTESIAN_POINT('',(86.8098381042993,27.4214776715677,11.));
#1095=CARTESIAN_POINT('Origin',(45.,0.,0.));
#1096=CARTESIAN_POINT('',(82.5290503059136,33.0389222453791,0.));
#1097=CARTESIAN_POINT('Origin',(45.,0.,0.));
#1098=CARTESIAN_POINT('',(82.5290503059136,33.0389222453791,0.));
#1099=CARTESIAN_POINT('Origin',(45.,0.,0.));
#1100=CARTESIAN_POINT('',(32.6003876171471,-16.8897404433875,0.));
#1101=CARTESIAN_POINT('',(39.9227258237072,-9.5674022368274,0.));
#1102=CARTESIAN_POINT('',(28.1102595566125,-12.3996123828529,0.));
#1103=CARTESIAN_POINT('Origin',(30.3553235868798,-14.6446764131202,0.));
#1104=CARTESIAN_POINT('',(7.47094969408636,-33.0389222453791,0.));
#1105=CARTESIAN_POINT('',(25.077266440069,-15.4326054993964,0.));
#1106=CARTESIAN_POINT('',(3.19016189570071,-27.4214776715677,0.));
#1107=CARTESIAN_POINT('Origin',(45.,0.,0.));
#1108=CARTESIAN_POINT('',(3.15159457183416,27.3625832683952,0.));
#1109=CARTESIAN_POINT('Origin',(-26.8640738686214,-0.0505914487481796,0.));
#1110=CARTESIAN_POINT('',(7.47094969408636,33.0389222453791,0.));
#1111=CARTESIAN_POINT('Origin',(45.,0.,0.));
#1112=CARTESIAN_POINT('',(28.1102595566125,12.3996123828529,0.));
#1113=CARTESIAN_POINT('',(35.4325977631726,5.07727417629283,0.));
#1114=CARTESIAN_POINT('',(32.6003876171471,16.8897404433875,0.));
#1115=CARTESIAN_POINT('Origin',(30.3553235868798,14.6446764131202,0.));
#1116=CARTESIAN_POINT('',(11.9610777546209,37.5290503059136,0.));
#1117=CARTESIAN_POINT('',(29.5673945006036,19.922733559931,0.));
#1118=CARTESIAN_POINT('',(17.5785223284323,41.8098381042993,0.));
#1119=CARTESIAN_POINT('Origin',(45.,0.,0.));
#1120=CARTESIAN_POINT('',(72.3625832683952,41.8484054281658,0.));
#1121=CARTESIAN_POINT('Origin',(44.9494085512518,71.8640738686214,0.));
#1122=CARTESIAN_POINT('',(78.0389222453791,37.5290503059136,0.));
#1123=CARTESIAN_POINT('Origin',(45.,0.,0.));
#1124=CARTESIAN_POINT('',(57.3996123828529,16.8897404433875,0.));
#1125=CARTESIAN_POINT('',(50.0772741762928,9.5674022368274,0.));
#1126=CARTESIAN_POINT('',(61.8897404433875,12.3996123828529,0.));
#1127=CARTESIAN_POINT('Origin',(59.6446764131202,14.6446764131202,0.));
#1128=CARTESIAN_POINT('',(64.922733559931,15.4326054993964,0.));
#1129=CARTESIAN_POINT('',(82.5290503059136,-33.0389222453791,0.));
#1130=CARTESIAN_POINT('Origin',(45.,0.,0.));
#1131=CARTESIAN_POINT('',(61.8897404433875,-12.3996123828529,0.));
#1132=CARTESIAN_POINT('',(54.5674022368274,-5.07727417629283,0.));
#1133=CARTESIAN_POINT('',(57.3996123828529,-16.8897404433875,0.));
#1134=CARTESIAN_POINT('Origin',(59.6446764131202,-14.6446764131202,0.));
#1135=CARTESIAN_POINT('',(78.0389222453791,-37.5290503059136,0.));
#1136=CARTESIAN_POINT('',(60.4326054993964,-19.922733559931,0.));
#1137=CARTESIAN_POINT('Origin',(45.,0.,0.));
#1138=CARTESIAN_POINT('',(43.1261670298557,1.87383297014435,0.));
#1139=CARTESIAN_POINT('Origin',(45.,0.,0.));
#1140=CARTESIAN_POINT('Origin',(44.9494085512518,71.8640738686214,11.));
#1141=CARTESIAN_POINT('',(72.3625832683952,41.8484054281658,11.));
#1142=CARTESIAN_POINT('',(17.5785223284323,41.8098381042993,11.));
#1143=CARTESIAN_POINT('Origin',(45.,0.,0.));
#1144=CARTESIAN_POINT('',(78.0389222453791,37.5290503059136,0.));
#1145=CARTESIAN_POINT('Origin',(45.,0.,0.));
#1146=CARTESIAN_POINT('',(3.15159457183416,27.3625832683952,11.));
#1147=CARTESIAN_POINT('',(7.47094969408636,33.0389222453791,0.));
#1148=CARTESIAN_POINT('Origin',(-26.8640738686214,-0.0505914487481796,11.));
#1149=CARTESIAN_POINT('',(3.19016189570071,-27.4214776715677,11.));
#1150=CARTESIAN_POINT('Origin',(45.,0.,0.));
#1151=CARTESIAN_POINT('',(7.47094969408636,-33.0389222453791,0.));
#1152=CARTESIAN_POINT('Origin',(45.,0.,0.));
#1153=CARTESIAN_POINT('',(82.5290503059136,-33.0389222453791,0.));
#1154=CARTESIAN_POINT('Origin',(57.3996123828529,16.8897404433875,8.));
#1155=CARTESIAN_POINT('',(57.3996123828529,16.8897404433875,8.));
#1156=CARTESIAN_POINT('Origin',(59.6446764131202,14.6446764131202,8.));
#1157=CARTESIAN_POINT('',(61.8897404433875,12.3996123828529,8.));
#1158=CARTESIAN_POINT('Origin',(82.6004030895947,33.1102750290601,8.));
#1159=CARTESIAN_POINT('Origin',(28.1102595566125,12.3996123828529,8.));
#1160=CARTESIAN_POINT('',(28.1102595566125,12.3996123828529,8.));
#1161=CARTESIAN_POINT('Origin',(30.3553235868798,14.6446764131202,8.));
#1162=CARTESIAN_POINT('',(32.6003876171471,16.8897404433875,8.));
#1163=CARTESIAN_POINT('Origin',(11.8897249709399,37.6004030895947,8.));
#1164=CARTESIAN_POINT('',(11.9610777546209,37.5290503059136,0.));
#1165=CARTESIAN_POINT('Origin',(32.6003876171471,-16.8897404433875,8.));
#1166=CARTESIAN_POINT('',(32.6003876171471,-16.8897404433875,8.));
#1167=CARTESIAN_POINT('Origin',(30.3553235868798,-14.6446764131202,8.));
#1168=CARTESIAN_POINT('',(28.1102595566125,-12.3996123828529,8.));
#1169=CARTESIAN_POINT('Origin',(7.39959691040533,-33.1102750290601,8.));
#1170=CARTESIAN_POINT('Origin',(45.,0.,0.));
#1171=CARTESIAN_POINT('',(78.0389222453791,-37.5290503059136,0.));
#1172=CARTESIAN_POINT('Origin',(45.,0.,0.));
#1173=CARTESIAN_POINT('Origin',(59.6446764131202,-14.6446764131202,8.));
#1174=CARTESIAN_POINT('',(61.8897404433875,-12.3996123828529,8.));
#1175=CARTESIAN_POINT('',(57.3996123828529,-16.8897404433875,8.));
#1176=CARTESIAN_POINT('Origin',(78.1102750290601,-37.6004030895947,8.));
#1177=CARTESIAN_POINT('Origin',(61.8897404433875,-12.3996123828529,8.));
#1178=CARTESIAN_POINT('Origin',(45.,0.,3.6));
#1179=CARTESIAN_POINT('',(43.1261670298557,1.87383297014435,3.6));
#1180=CARTESIAN_POINT('',(0.,0.,0.));
#1181=CARTESIAN_POINT('',(-25.4765120288885,16.0778450482647,1.73872167086677));
#1182=CARTESIAN_POINT('',(-71.8640738686214,-0.0505914487481796,-2.20984531848241E-18));
#1183=CARTESIAN_POINT('Origin',(1.93082262275051E-14,50.,8.));
#1184=CARTESIAN_POINT('',(3.00000000000002,50.,16.));
#1185=CARTESIAN_POINT('Origin',(1.93082262275051E-14,50.,16.));
#1186=CARTESIAN_POINT('',(3.00000000000002,50.,8.));
#1187=CARTESIAN_POINT('',(3.00000000000002,50.,8.));
#1188=CARTESIAN_POINT('',(2.04667198011554E-14,53.,8.));
#1189=CARTESIAN_POINT('Origin',(1.93082262275051E-14,50.,8.));
#1190=CARTESIAN_POINT('Origin',(1.93082262275051E-14,50.,8.));
#1191=CARTESIAN_POINT('Origin',(1.94289029309402E-14,50.,16.));
#1192=CARTESIAN_POINT('Origin',(0.,0.,8.));
#1193=CARTESIAN_POINT('',(-53.,-6.49062803548097E-15,8.));
#1194=CARTESIAN_POINT('Origin',(0.,0.,8.));
#1195=CARTESIAN_POINT('Origin',(0.,0.,8.));
#1196=CARTESIAN_POINT('',(27.4947408407731,28.9490043196433,8.));
#1197=CARTESIAN_POINT('',(-27.4947408407731,28.9490043196433,8.));
#1198=CARTESIAN_POINT('Origin',(1.38777878078145E-16,1.38777878078145E-16,
8.));
#1199=CARTESIAN_POINT('Origin',(3.38667463449753E-14,70.7107,8.));
#1200=CARTESIAN_POINT('Origin',(3.38667463449753E-14,70.7107,16.));
#1201=CARTESIAN_POINT('',(27.4947408407731,28.9490043196433,16.));
#1202=CARTESIAN_POINT('',(-27.4947408407731,28.9490043196433,16.));
#1203=CARTESIAN_POINT('Origin',(3.38667463449753E-14,70.7107,16.));
#1204=CARTESIAN_POINT('',(27.4947408407731,28.9490043196433,16.));
#1205=CARTESIAN_POINT('',(-27.4947408407731,28.9490043196433,16.));
#1206=CARTESIAN_POINT('Origin',(1.38777878078145E-16,1.38777878078145E-16,
8.));
#1207=CARTESIAN_POINT('Origin',(1.38777878078145E-16,1.38777878078145E-16,
16.));
#1208=CARTESIAN_POINT('Origin',(0.,0.,16.));
#1209=CARTESIAN_POINT('',(1.73853386507137,2.,16.));
#1210=CARTESIAN_POINT('',(-1.73853386507137,2.,16.));
#1211=CARTESIAN_POINT('Origin',(1.38777878078145E-16,1.38777878078145E-16,
16.));
#1212=CARTESIAN_POINT('',(-1.73853386507137,2.,16.));
#1213=CARTESIAN_POINT('Origin',(-1.73853386507137,2.,0.));
#1214=CARTESIAN_POINT('',(-1.73853386507137,2.,0.));
#1215=CARTESIAN_POINT('',(1.73853386507137,2.,0.));
#1216=CARTESIAN_POINT('',(-1.73853386507137,2.,0.));
#1217=CARTESIAN_POINT('',(1.73853386507137,2.,0.));
#1218=CARTESIAN_POINT('',(-1.73853386507137,2.,0.));
#1219=CARTESIAN_POINT('Origin',(0.,0.,0.));
#1220=CARTESIAN_POINT('Origin',(0.,0.,0.));
#1221=CARTESIAN_POINT('Origin',(0.,0.,0.));
#1222=CARTESIAN_POINT('',(-53.,-6.49062803548097E-15,0.));
#1223=CARTESIAN_POINT('',(-53.,-6.49062803548097E-15,0.));
#1224=CARTESIAN_POINT('Origin',(0.,0.,0.));
#1225=CARTESIAN_POINT('Origin',(0.,0.,0.));
#1226=CARTESIAN_POINT('',(155.,0.,0.));
#1227=UNCERTAINTY_MEASURE_WITH_UNIT(LENGTH_MEASURE(0.01),#1237,
'DISTANCE_ACCURACY_VALUE',
'Maximum model space distance between geometric entities at asserted c
onnectivities');
#1228=UNCERTAINTY_MEASURE_WITH_UNIT(LENGTH_MEASURE(0.01),#1237,
'DISTANCE_ACCURACY_VALUE',
'Maximum model space distance between geometric entities at asserted c
onnectivities');
#1229=UNCERTAINTY_MEASURE_WITH_UNIT(LENGTH_MEASURE(0.01),#1237,
'DISTANCE_ACCURACY_VALUE',
'Maximum model space distance between geometric entities at asserted c
onnectivities');
#1230=UNCERTAINTY_MEASURE_WITH_UNIT(LENGTH_MEASURE(0.01),#1237,
'DISTANCE_ACCURACY_VALUE',
'Maximum model space distance between geometric entities at asserted c
onnectivities');
#1231=UNCERTAINTY_MEASURE_WITH_UNIT(LENGTH_MEASURE(0.01),#1237,
'DISTANCE_ACCURACY_VALUE',
'Maximum model space distance between geometric entities at asserted c
onnectivities');
#1232=(
GEOMETRIC_REPRESENTATION_CONTEXT(3)
GLOBAL_UNCERTAINTY_ASSIGNED_CONTEXT((#1227))
GLOBAL_UNIT_ASSIGNED_CONTEXT((#1237,#1239,#1240))
REPRESENTATION_CONTEXT('','3D')
);
#1233=(
GEOMETRIC_REPRESENTATION_CONTEXT(3)
GLOBAL_UNCERTAINTY_ASSIGNED_CONTEXT((#1228))
GLOBAL_UNIT_ASSIGNED_CONTEXT((#1237,#1239,#1240))
REPRESENTATION_CONTEXT('','3D')
);
#1234=(
GEOMETRIC_REPRESENTATION_CONTEXT(3)
GLOBAL_UNCERTAINTY_ASSIGNED_CONTEXT((#1229))
GLOBAL_UNIT_ASSIGNED_CONTEXT((#1237,#1239,#1240))
REPRESENTATION_CONTEXT('','3D')
);
#1235=(
GEOMETRIC_REPRESENTATION_CONTEXT(3)
GLOBAL_UNCERTAINTY_ASSIGNED_CONTEXT((#1230))
GLOBAL_UNIT_ASSIGNED_CONTEXT((#1237,#1239,#1240))
REPRESENTATION_CONTEXT('','3D')
);
#1236=(
GEOMETRIC_REPRESENTATION_CONTEXT(3)
GLOBAL_UNCERTAINTY_ASSIGNED_CONTEXT((#1231))
GLOBAL_UNIT_ASSIGNED_CONTEXT((#1237,#1239,#1240))
REPRESENTATION_CONTEXT('','3D')
);
#1237=(
LENGTH_UNIT()
NAMED_UNIT(*)
SI_UNIT(.MILLI.,.METRE.)
);
#1238=(
LENGTH_UNIT()
NAMED_UNIT(*)
SI_UNIT($,.METRE.)
);
#1239=(
NAMED_UNIT(*)
PLANE_ANGLE_UNIT()
SI_UNIT($,.RADIAN.)
);
#1240=(
NAMED_UNIT(*)
SI_UNIT($,.STERADIAN.)
SOLID_ANGLE_UNIT()
);
#1241=SHAPE_DEFINITION_REPRESENTATION(#1245,#1252);
#1242=SHAPE_DEFINITION_REPRESENTATION(#1246,#1253);
#1243=SHAPE_DEFINITION_REPRESENTATION(#1247,#1254);
#1244=SHAPE_DEFINITION_REPRESENTATION(#1248,#1255);
#1245=PRODUCT_DEFINITION_SHAPE('',$,#1257);
#1246=PRODUCT_DEFINITION_SHAPE('',$,#1258);
#1247=PRODUCT_DEFINITION_SHAPE('',$,#1259);
#1248=PRODUCT_DEFINITION_SHAPE('',$,#1260);
#1249=PRODUCT_DEFINITION_SHAPE($,$,#20);
#1250=PRODUCT_DEFINITION_SHAPE($,$,#21);
#1251=PRODUCT_DEFINITION_SHAPE($,$,#22);
#1252=SHAPE_REPRESENTATION('',(#706,#795),#1232);
#1253=SHAPE_REPRESENTATION('',(#707,#771,#772),#1233);
#1254=SHAPE_REPRESENTATION('',(#708),#1234);
#1255=SHAPE_REPRESENTATION('',(#770),#1235);
#1256=PRODUCT_DEFINITION_CONTEXT('part definition',#1270,'design');
#1257=PRODUCT_DEFINITION('2026-07-27-11-49-02-411','drivegear',#1261,#1256);
#1258=PRODUCT_DEFINITION('2026-07-26-16-47-25-294','ganeva',#1262,#1256);
#1259=PRODUCT_DEFINITION('2026-07-26-16-49-36-809','Star wheel',#1263,#1256);
#1260=PRODUCT_DEFINITION('2026-07-26-17-59-35-827','drive wheel',#1264,
#1256);
#1261=PRODUCT_DEFINITION_FORMATION('',$,#1272);
#1262=PRODUCT_DEFINITION_FORMATION('',$,#1273);
#1263=PRODUCT_DEFINITION_FORMATION('',$,#1274);
#1264=PRODUCT_DEFINITION_FORMATION('',$,#1275);
#1265=PRODUCT_RELATED_PRODUCT_CATEGORY('drivegear','drivegear',(#1272));
#1266=PRODUCT_RELATED_PRODUCT_CATEGORY('ganeva','ganeva',(#1273));
#1267=PRODUCT_RELATED_PRODUCT_CATEGORY('Star wheel','Star wheel',(#1274));
#1268=PRODUCT_RELATED_PRODUCT_CATEGORY('drive wheel','drive wheel',(#1275));
#1269=APPLICATION_PROTOCOL_DEFINITION('international standard',
'automotive_design',2009,#1270);
#1270=APPLICATION_CONTEXT(
'Core Data for Automotive Mechanical Design Process');
#1271=PRODUCT_CONTEXT('part definition',#1270,'mechanical');
#1272=PRODUCT('2026-07-27-11-49-02-411','drivegear',$,(#1271));
#1273=PRODUCT('2026-07-26-16-47-25-294','ganeva',$,(#1271));
#1274=PRODUCT('2026-07-26-16-49-36-809','Star wheel',$,(#1271));
#1275=PRODUCT('2026-07-26-17-59-35-827','drive wheel',$,(#1271));
#1276=PRESENTATION_STYLE_ASSIGNMENT((#1277));
#1277=SURFACE_STYLE_USAGE(.BOTH.,#1278);
#1278=SURFACE_SIDE_STYLE('',(#1279));
#1279=SURFACE_STYLE_FILL_AREA(#1280);
#1280=FILL_AREA_STYLE('Steel - Satin',(#1281));
#1281=FILL_AREA_STYLE_COLOUR('Steel - Satin',#1282);
#1282=COLOUR_RGB('Steel - Satin',0.627450980392157,0.627450980392157,0.627450980392157);
ENDSEC;
END-ISO-10303-21;
